<?xml version="1.0" encoding="utf-8" standalone="no"?>
<!DOCTYPE svg PUBLIC "-//W3C//DTD SVG 1.1//EN"
  "http://www.w3.org/Graphics/SVG/1.1/DTD/svg11.dtd">
<!-- Created with matplotlib (http://matplotlib.org/) -->
<svg height="894pt" version="1.1" viewBox="0 0 1674 894" width="1674pt" xmlns="http://www.w3.org/2000/svg" xmlns:xlink="http://www.w3.org/1999/xlink">
 <defs>
  <style type="text/css">
*{stroke-linecap:butt;stroke-linejoin:round;stroke-miterlimit:100000;}
  </style>
 </defs>
 <g id="figure_1">
  <g id="patch_1">
   <path d="M 0 894.6 
L 1674.9 894.6 
L 1674.9 0 
L 0 0 
z
" style="fill:#ffffff;"/>
  </g>
  <g id="axes_1">
   <g id="patch_2">
    <path d="M 209.3625 805.14 
L 1507.41 805.14 
L 1507.41 89.46 
L 209.3625 89.46 
z
" style="fill:#ffffff;"/>
   </g>
   <g id="line2d_1">
    <defs>
     <path d="M 0 5 
C 1.326016 5 2.597899 4.473168 3.535534 3.535534 
C 4.473168 2.597899 5 1.326016 5 0 
C 5 -1.326016 4.473168 -2.597899 3.535534 -3.535534 
C 2.597899 -4.473168 1.326016 -5 0 -5 
C -1.326016 -5 -2.597899 -4.473168 -3.535534 -3.535534 
C -4.473168 -2.597899 -5 -1.326016 -5 0 
C -5 1.326016 -4.473168 2.597899 -3.535534 3.535534 
C -2.597899 4.473168 -1.326016 5 0 5 
z
" id="m8326290244" style="stroke:#000000;stroke-width:0.5;"/>
    </defs>
    <g clip-path="url(#p2ab3c4c7a5)">
     <use style="fill:#0000ff;stroke:#000000;stroke-width:0.5;" x="377.964742032" xlink:href="#m8326290244" y="689.704839959"/>
     <use style="fill:#0000ff;stroke:#000000;stroke-width:0.5;" x="445.037737806" xlink:href="#m8326290244" y="648.804300042"/>
     <use style="fill:#0000ff;stroke:#000000;stroke-width:0.5;" x="512.110733581" xlink:href="#m8326290244" y="628.887660641"/>
     <use style="fill:#0000ff;stroke:#000000;stroke-width:0.5;" x="579.183729356" xlink:href="#m8326290244" y="600.15243837"/>
     <use style="fill:#0000ff;stroke:#000000;stroke-width:0.5;" x="646.25672513" xlink:href="#m8326290244" y="568.169233657"/>
     <use style="fill:#0000ff;stroke:#000000;stroke-width:0.5;" x="713.329720905" xlink:href="#m8326290244" y="536.093809785"/>
     <use style="fill:#0000ff;stroke:#000000;stroke-width:0.5;" x="780.40271668" xlink:href="#m8326290244" y="502.09493031"/>
     <use style="fill:#0000ff;stroke:#000000;stroke-width:0.5;" x="847.475712454" xlink:href="#m8326290244" y="468.169955813"/>
     <use style="fill:#0000ff;stroke:#000000;stroke-width:0.5;" x="914.548708229" xlink:href="#m8326290244" y="432.587784159"/>
     <use style="fill:#0000ff;stroke:#000000;stroke-width:0.5;" x="981.621704004" xlink:href="#m8326290244" y="392.986524931"/>
     <use style="fill:#0000ff;stroke:#000000;stroke-width:0.5;" x="1048.69469978" xlink:href="#m8326290244" y="350.620448178"/>
     <use style="fill:#0000ff;stroke:#000000;stroke-width:0.5;" x="1115.76769555" xlink:href="#m8326290244" y="310.549295549"/>
     <use style="fill:#0000ff;stroke:#000000;stroke-width:0.5;" x="1182.84069133" xlink:href="#m8326290244" y="264.239685106"/>
     <use style="fill:#0000ff;stroke:#000000;stroke-width:0.5;" x="1249.9136871" xlink:href="#m8326290244" y="222.640005661"/>
     <use style="fill:#0000ff;stroke:#000000;stroke-width:0.5;" x="1316.98668288" xlink:href="#m8326290244" y="165.016185762"/>
    </g>
   </g>
   <g id="line2d_2">
    <path clip-path="url(#p2ab3c4c7a5)" d="M 243.81875 780.542242 
L 255.89189 773.972354 
L 267.965029 767.402465 
L 280.038168 760.832576 
L 292.111307 754.262687 
L 304.184447 747.692799 
L 316.257586 741.12291 
L 328.330725 734.553021 
L 340.403864 727.983133 
L 352.477004 721.413244 
L 364.550143 714.843355 
L 376.623282 708.273467 
L 388.696421 701.703578 
L 400.769561 695.133689 
L 412.8427 688.5638 
L 424.915839 681.993912 
L 436.988978 675.424023 
L 449.062118 668.854134 
L 461.135257 662.284246 
L 473.208396 655.714357 
L 485.281535 649.144468 
L 497.354675 642.57458 
L 509.427814 636.004691 
L 521.500953 629.434802 
L 533.574092 622.864913 
L 545.647231 616.295025 
L 557.720371 609.725136 
L 569.79351 603.155247 
L 581.866649 596.585359 
L 593.939788 590.01547 
L 606.012928 583.445581 
L 618.086067 576.875693 
L 630.159206 570.305804 
L 642.232345 563.735915 
L 654.305485 557.166026 
L 666.378624 550.596138 
L 678.451763 544.026249 
L 690.524902 537.45636 
L 702.598042 530.886472 
L 714.671181 524.316583 
L 726.74432 517.746694 
L 738.817459 511.176806 
L 750.890599 504.606917 
L 762.963738 498.037028 
L 775.036877 491.46714 
L 787.110016 484.897251 
L 799.183155 478.327362 
L 811.256295 471.757473 
L 823.329434 465.187585 
L 835.402573 458.617696 
L 847.475712 452.047807 
L 859.548852 445.477919 
L 871.621991 438.90803 
L 883.69513 432.338141 
L 895.768269 425.768253 
L 907.841409 419.198364 
L 919.914548 412.628475 
L 931.987687 406.058586 
L 944.060826 399.488698 
L 956.133966 392.918809 
L 968.207105 386.34892 
L 980.280244 379.779032 
L 992.353383 373.209143 
L 1004.426523 366.639254 
L 1016.499662 360.069366 
L 1028.572801 353.499477 
L 1040.64594 346.929588 
L 1052.71908 340.359699 
L 1064.792219 333.789811 
L 1076.865358 327.219922 
L 1088.938497 320.650033 
L 1101.011636 314.080145 
L 1113.084776 307.510256 
L 1125.157915 300.940367 
L 1137.231054 294.370479 
L 1149.304193 287.80059 
L 1161.377333 281.230701 
L 1173.450472 274.660812 
L 1185.523611 268.090924 
L 1197.59675 261.521035 
L 1209.66989 254.951146 
L 1221.743029 248.381258 
L 1233.816168 241.811369 
L 1245.889307 235.24148 
L 1257.962447 228.671592 
L 1270.035586 222.101703 
L 1282.108725 215.531814 
L 1294.181864 208.961925 
L 1306.255004 202.392037 
L 1318.328143 195.822148 
L 1330.401282 189.252259 
L 1342.474421 182.682371 
L 1354.547561 176.112482 
L 1366.6207 169.542593 
L 1378.693839 162.972705 
L 1390.766978 156.402816 
L 1402.840117 149.832927 
L 1414.913257 143.263039 
L 1426.986396 136.69315 
L 1439.059535 130.123261 
L 1451.132674 123.553372 
" style="fill:none;stroke:#ff0000;stroke-linecap:square;"/>
   </g>
   <g id="patch_3">
    <path d="M 209.3625 805.14 
L 209.3625 89.46 
" style="fill:none;stroke:#000000;stroke-linecap:square;stroke-linejoin:miter;"/>
   </g>
   <g id="patch_4">
    <path d="M 1507.41 805.14 
L 1507.41 89.46 
" style="fill:none;stroke:#000000;stroke-linecap:square;stroke-linejoin:miter;"/>
   </g>
   <g id="patch_5">
    <path d="M 209.3625 805.14 
L 1507.41 805.14 
" style="fill:none;stroke:#000000;stroke-linecap:square;stroke-linejoin:miter;"/>
   </g>
   <g id="patch_6">
    <path d="M 209.3625 89.46 
L 1507.41 89.46 
" style="fill:none;stroke:#000000;stroke-linecap:square;stroke-linejoin:miter;"/>
   </g>
   <g id="matplotlib.axis_1">
    <g id="xtick_1">
     <g id="line2d_3">
      <path clip-path="url(#p2ab3c4c7a5)" d="M 337.720945 805.14 
L 337.720945 89.46 
" style="fill:none;stroke:#000000;stroke-dasharray:1.000000,3.000000;stroke-dashoffset:0.0;stroke-width:0.5;"/>
     </g>
     <g id="line2d_4">
      <defs>
       <path d="M 0 0 
L 0 -4 
" id="ma026d0ecab" style="stroke:#000000;stroke-width:0.5;"/>
      </defs>
      <g>
       <use style="stroke:#000000;stroke-width:0.5;" x="337.720944567" xlink:href="#ma026d0ecab" y="805.14"/>
      </g>
     </g>
     <g id="line2d_5">
      <defs>
       <path d="M 0 0 
L 0 4 
" id="m8cea47b40d" style="stroke:#000000;stroke-width:0.5;"/>
      </defs>
      <g>
       <use style="stroke:#000000;stroke-width:0.5;" x="337.720944567" xlink:href="#m8cea47b40d" y="89.46"/>
      </g>
     </g>
     <g id="text_1">
      <!-- $280$ -->
      <defs>
       <path d="M 16.796875 34.546875 
C 12.703125 32.65625 11 31.546875 8.796875 29.4375 
C 5 25.640625 3 21.125 3 15.921875 
C 3 5.609375 11.296875 -2 22.59375 -2 
C 35.59375 -2 46.40625 8.21875 46.40625 20.625 
C 46.40625 28.640625 42.703125 32.953125 31.296875 38.15625 
C 40.40625 44.375 43.59375 48.578125 43.59375 54.578125 
C 43.59375 63.1875 36.5 69 25.90625 69 
C 14 69 5.296875 61.390625 5.296875 50.890625 
C 5.296875 44.078125 8 40.265625 16.796875 34.546875 
M 28.40625 29.546875 
C 34.703125 26.734375 38.5 21.828125 38.5 16.4375 
C 38.5 8.015625 32.203125 1.40625 24.09375 1.40625 
C 15.59375 1.40625 10.09375 7.421875 10.09375 16.734375 
C 10.09375 24.03125 13 28.640625 20.40625 33.15625 
z
M 22.296875 42.375 
C 16 45.46875 12.796875 49.484375 12.796875 54.484375 
C 12.796875 61.09375 17.59375 65.59375 24.703125 65.59375 
C 32 65.59375 36.796875 60.796875 36.796875 53.46875 
C 36.796875 47.78125 34.296875 43.875 27.796875 39.65625 
z
" id="URW_Palladio_L_Roman-56"/>
       <path d="M 1.59375 2.5 
L 1.59375 0 
C 20.296875 0 20.296875 0 23.90625 0 
C 27.5 0 27.5 0 46.796875 0 
C 46.59375 1.953125 46.59375 2.90625 46.59375 4.203125 
C 46.59375 5.4375 46.59375 6.359375 46.796875 8.421875 
C 35.296875 8.421875 30.703125 8.421875 12.203125 8.421875 
L 30.40625 27.515625 
C 40.09375 37.71875 43.09375 43.171875 43.09375 50.59375 
C 43.09375 61.96875 35.296875 69 22.59375 69 
C 15.40625 69 10.5 67 5.59375 62.015625 
L 3.90625 48.421875 
L 6.796875 48.421875 
L 8.09375 53.015625 
C 9.703125 58.796875 13.296875 61.296875 20 61.296875 
C 28.59375 61.296875 34.09375 55.890625 34.09375 47.421875 
C 34.09375 39.921875 29.90625 32.546875 18.59375 20.5625 
z
" id="URW_Palladio_L_Roman-50"/>
       <path d="M 26.296875 69 
C 10.796875 69 2.90625 56.6875 2.90625 32.453125 
C 2.90625 20.71875 5 10.625 8.5 5.71875 
C 12 0.796875 17.59375 -2 23.796875 -2 
C 38.90625 -2 46.5 11.015625 46.5 36.65625 
C 46.5 58.578125 40 69 26.296875 69 
M 24.5 65.5 
C 34.203125 65.5 38.09375 55.6875 38.09375 31.640625 
C 38.09375 10.328125 34.296875 1.5 25.09375 1.5 
C 15.40625 1.5 11.296875 11.625 11.296875 36.0625 
C 11.296875 57.1875 15 65.5 24.5 65.5 
" id="URW_Palladio_L_Roman-48"/>
      </defs>
      <g transform="translate(316.799400358 829.09905856)scale(0.28 -0.28)">
       <use transform="scale(0.9962640099626402)" xlink:href="#URW_Palladio_L_Roman-50"/>
       <use transform="translate(49.81320049813201 0.0)scale(0.9962640099626402)" xlink:href="#URW_Palladio_L_Roman-56"/>
       <use transform="translate(99.62640099626402 0.0)scale(0.9962640099626402)" xlink:href="#URW_Palladio_L_Roman-48"/>
      </g>
     </g>
    </g>
    <g id="xtick_2">
     <g id="line2d_6">
      <path clip-path="url(#p2ab3c4c7a5)" d="M 606.012928 805.14 
L 606.012928 89.46 
" style="fill:none;stroke:#000000;stroke-dasharray:1.000000,3.000000;stroke-dashoffset:0.0;stroke-width:0.5;"/>
     </g>
     <g id="line2d_7">
      <g>
       <use style="stroke:#000000;stroke-width:0.5;" x="606.012927666" xlink:href="#ma026d0ecab" y="805.14"/>
      </g>
     </g>
     <g id="line2d_8">
      <g>
       <use style="stroke:#000000;stroke-width:0.5;" x="606.012927666" xlink:href="#m8cea47b40d" y="89.46"/>
      </g>
     </g>
     <g id="text_2">
      <!-- $300$ -->
      <defs>
       <path d="M 4.296875 49.953125 
L 7.40625 49.953125 
L 9.203125 55.53125 
C 10.296875 58.90625 16.59375 62.296875 21.796875 62.296875 
C 28.296875 62.296875 33.59375 57.015625 33.59375 50.75 
C 33.59375 43.28125 27.703125 37 20.59375 37 
C 19.796875 37 18.703125 37 17.40625 37.203125 
L 15.90625 37.203125 
L 14.703125 31.984375 
L 15.40625 31.375 
C 19.203125 33.09375 21.09375 33.59375 23.796875 33.59375 
C 32.09375 33.59375 36.90625 28.265625 36.90625 19.09375 
C 36.90625 8.84375 30.796875 2.109375 21.5 2.109375 
C 16.90625 2.109375 12.796875 3.609375 9.796875 6.421875 
C 7.40625 8.640625 6.09375 10.953125 4.203125 16.390625 
L 1.5 15.390625 
C 3.59375 9.265625 4.40625 5.640625 5 0.609375 
C 10.296875 -1.203125 14.703125 -2 18.40625 -2 
C 26.40625 -2 35.59375 2.515625 41.09375 9.265625 
C 44.5 13.390625 46.203125 17.8125 46.203125 22.53125 
C 46.203125 27.359375 44.203125 31.59375 40.59375 34.09375 
C 38.09375 35.90625 35.796875 36.71875 30.796875 37.609375 
C 38.796875 43.796875 41.796875 48.375 41.796875 54.25 
C 41.796875 63.125 34.40625 69 23.296875 69 
C 16.5 69 12 67.109375 7.203125 62.328125 
z
" id="URW_Palladio_L_Roman-51"/>
      </defs>
      <g transform="translate(585.091383456 829.09905856)scale(0.28 -0.28)">
       <use transform="scale(0.9962640099626402)" xlink:href="#URW_Palladio_L_Roman-51"/>
       <use transform="translate(49.81320049813201 0.0)scale(0.9962640099626402)" xlink:href="#URW_Palladio_L_Roman-48"/>
       <use transform="translate(99.62640099626402 0.0)scale(0.9962640099626402)" xlink:href="#URW_Palladio_L_Roman-48"/>
      </g>
     </g>
    </g>
    <g id="xtick_3">
     <g id="line2d_9">
      <path clip-path="url(#p2ab3c4c7a5)" d="M 874.304911 805.14 
L 874.304911 89.46 
" style="fill:none;stroke:#000000;stroke-dasharray:1.000000,3.000000;stroke-dashoffset:0.0;stroke-width:0.5;"/>
     </g>
     <g id="line2d_10">
      <g>
       <use style="stroke:#000000;stroke-width:0.5;" x="874.304910764" xlink:href="#ma026d0ecab" y="805.14"/>
      </g>
     </g>
     <g id="line2d_11">
      <g>
       <use style="stroke:#000000;stroke-width:0.5;" x="874.304910764" xlink:href="#m8cea47b40d" y="89.46"/>
      </g>
     </g>
     <g id="text_3">
      <!-- $320$ -->
      <g transform="translate(853.383366555 829.09905856)scale(0.28 -0.28)">
       <use transform="scale(0.9962640099626402)" xlink:href="#URW_Palladio_L_Roman-51"/>
       <use transform="translate(49.81320049813201 0.0)scale(0.9962640099626402)" xlink:href="#URW_Palladio_L_Roman-50"/>
       <use transform="translate(99.62640099626402 0.0)scale(0.9962640099626402)" xlink:href="#URW_Palladio_L_Roman-48"/>
      </g>
     </g>
    </g>
    <g id="xtick_4">
     <g id="line2d_12">
      <path clip-path="url(#p2ab3c4c7a5)" d="M 1142.596894 805.14 
L 1142.596894 89.46 
" style="fill:none;stroke:#000000;stroke-dasharray:1.000000,3.000000;stroke-dashoffset:0.0;stroke-width:0.5;"/>
     </g>
     <g id="line2d_13">
      <g>
       <use style="stroke:#000000;stroke-width:0.5;" x="1142.59689386" xlink:href="#ma026d0ecab" y="805.14"/>
      </g>
     </g>
     <g id="line2d_14">
      <g>
       <use style="stroke:#000000;stroke-width:0.5;" x="1142.59689386" xlink:href="#m8cea47b40d" y="89.46"/>
      </g>
     </g>
     <g id="text_4">
      <!-- $340$ -->
      <defs>
       <path d="M 28 18 
L 28 10.515625 
C 28 4.515625 26.90625 3.109375 22 3.109375 
L 15.796875 3.109375 
L 15.796875 0 
C 29.09375 0 29.09375 0 31.5 0 
C 33.90625 0 33.90625 0 47.203125 0 
L 47.203125 3.109375 
L 42.40625 3.109375 
C 37.5 3.109375 36.40625 4.40625 36.40625 10.453125 
L 36.40625 18 
C 42.296875 18 44.40625 18 47.203125 17.703125 
L 47.203125 24.8125 
C 42.5 24.421875 40.59375 24.421875 39.09375 24.421875 
L 38.796875 24.421875 
L 36.40625 24.421875 
L 36.40625 38.390625 
C 36.40625 56.25 36.59375 64.875 37.09375 69 
L 35.90625 69.5 
L 28.5 66.796875 
L 0.203125 20.296875 
L 1.296875 18 
z
M 28 24.421875 
L 6.5 24.421875 
L 28 59.78125 
z
" id="URW_Palladio_L_Roman-52"/>
      </defs>
      <g transform="translate(1121.67534965 829.09905856)scale(0.28 -0.28)">
       <use transform="scale(0.9962640099626402)" xlink:href="#URW_Palladio_L_Roman-51"/>
       <use transform="translate(49.81320049813201 0.0)scale(0.9962640099626402)" xlink:href="#URW_Palladio_L_Roman-52"/>
       <use transform="translate(99.62640099626402 0.0)scale(0.9962640099626402)" xlink:href="#URW_Palladio_L_Roman-48"/>
      </g>
     </g>
    </g>
    <g id="xtick_5">
     <g id="line2d_15">
      <path clip-path="url(#p2ab3c4c7a5)" d="M 1410.888877 805.14 
L 1410.888877 89.46 
" style="fill:none;stroke:#000000;stroke-dasharray:1.000000,3.000000;stroke-dashoffset:0.0;stroke-width:0.5;"/>
     </g>
     <g id="line2d_16">
      <g>
       <use style="stroke:#000000;stroke-width:0.5;" x="1410.88887696" xlink:href="#ma026d0ecab" y="805.14"/>
      </g>
     </g>
     <g id="line2d_17">
      <g>
       <use style="stroke:#000000;stroke-width:0.5;" x="1410.88887696" xlink:href="#m8cea47b40d" y="89.46"/>
      </g>
     </g>
     <g id="text_5">
      <!-- $360$ -->
      <defs>
       <path d="M 41.59375 67.34375 
L 37.90625 69.046875 
C 28.296875 65.84375 24.203125 63.84375 19.09375 59.4375 
C 8.796875 50.71875 3.203125 38.5 3.203125 24.765625 
C 3.203125 8.21875 11.203125 -2 24.09375 -2 
C 37.09375 -2 46.796875 8.3125 46.796875 21.953125 
C 46.796875 33.484375 39.90625 41 29.296875 41 
C 24.296875 41 21.296875 39.6875 15.40625 34.984375 
C 14.296875 34.078125 14.203125 33.984375 13.09375 33.1875 
C 15.203125 51.3125 23.59375 61.140625 41.59375 66.546875 
z
M 25.5 34.984375 
C 33.09375 34.984375 38.203125 28.375 38.203125 18.453125 
C 38.203125 8.015625 33.09375 1.296875 25.40625 1.296875 
C 16.90625 1.296875 12.296875 8.609375 12.296875 22.0625 
C 12.296875 25.5625 12.703125 27.46875 13.796875 29.171875 
C 16 32.578125 20.703125 34.984375 25.5 34.984375 
" id="URW_Palladio_L_Roman-54"/>
      </defs>
      <g transform="translate(1389.96733275 829.09905856)scale(0.28 -0.28)">
       <use transform="scale(0.9962640099626402)" xlink:href="#URW_Palladio_L_Roman-51"/>
       <use transform="translate(49.81320049813201 0.0)scale(0.9962640099626402)" xlink:href="#URW_Palladio_L_Roman-54"/>
       <use transform="translate(99.62640099626402 0.0)scale(0.9962640099626402)" xlink:href="#URW_Palladio_L_Roman-48"/>
      </g>
     </g>
    </g>
    <g id="text_6">
     <!-- Temperatura [K] -->
     <defs>
      <path d="M 1.796875 40.078125 
L 5.5 40.078125 
C 9.5 40.078125 9.90625 39.375 9.90625 32.71875 
L 9.90625 10.046875 
C 9.90625 3.703125 9.59375 3 6.203125 3 
L 1.59375 3 
L 1.59375 -0.109375 
C 11.203125 -0.109375 11.5 -0.109375 14.296875 -0.109375 
C 17.09375 -0.109375 19.703125 -0.109375 26.203125 -0.109375 
L 26.203125 2.796875 
L 22 3.203125 
C 18.59375 3.203125 18.296875 3.90625 18.296875 10.21875 
L 18.296875 31.46875 
C 18.296875 35.96875 24.90625 40.875 30.90625 40.875 
C 36.296875 40.875 40 35.734375 40 28.09375 
L 40 10.046875 
C 40 3.703125 39.703125 3 36.296875 3 
L 31.703125 3 
L 31.703125 -0.109375 
C 41.703125 -0.109375 41.703125 -0.109375 44.203125 -0.109375 
C 46.703125 -0.109375 46.703125 -0.109375 56.703125 -0.109375 
L 56.703125 3 
L 52.09375 3 
C 48.703125 3 48.40625 3.703125 48.40625 10.046875 
L 48.40625 31.421875 
C 48.40625 35.9375 55 40.875 61 40.875 
C 66.40625 40.875 70.09375 35.796875 70.09375 28.21875 
L 70.09375 -0.109375 
C 76.203125 -0.109375 76.296875 -0.109375 78 -0.109375 
C 79.296875 -0.109375 79.296875 -0.109375 86.90625 -0.109375 
L 86.90625 3 
L 82.203125 3 
C 78.796875 3 78.5 3.703125 78.5 10.046875 
L 78.5 30.78125 
C 78.5 40.75 72.703125 47 63.5 47 
C 60 47 57.09375 46.09375 55.296875 44.484375 
L 47.703125 37.6875 
C 44.5 44.28125 40.40625 47 33.5 47 
C 29.796875 47 27 46.09375 25.203125 44.484375 
L 18.296875 38.078125 
L 18.296875 46.59375 
L 17.40625 47 
C 12.296875 44.890625 7.09375 43.484375 1.796875 42.890625 
z
" id="URW_Palladio_L_Roman-109"/>
      <path d="M 8.796875 -18 
C 15.90625 -18 16.09375 -18 18.5 -18 
C 20.90625 -18 21.40625 -18 28.203125 -18 
L 28.796875 -17.5 
L 28.796875 -14.890625 
L 28.40625 -14.390625 
L 24.59375 -14.390625 
C 21.90625 -14.390625 19.703125 -13.78125 18.5 -12.78125 
C 17.59375 -11.875 17.296875 -10.484375 17.296875 -7.171875 
C 17.296875 -7.078125 17.296875 -4.96875 17.203125 -1.953125 
L 17.203125 1.75 
L 17.203125 53.265625 
L 17.203125 56.96875 
C 17.296875 59.78125 17.296875 61.984375 17.296875 62.078125 
C 17.296875 65.390625 17.59375 66.890625 18.5 67.796875 
C 19.703125 68.796875 21.90625 69.390625 24.59375 69.390625 
L 28.40625 69.390625 
L 28.796875 69.890625 
L 28.796875 72.5 
L 28.203125 73 
C 21.203125 73 20.90625 73 18.5 73 
C 16.203125 73 15.703125 73 8.796875 73 
L 7.90625 71.796875 
C 8.5 69.296875 8.703125 65.984375 8.703125 58.28125 
C 8.703125 56.765625 8.703125 55.5625 8.796875 54.5625 
L 8.796875 53.265625 
L 8.796875 1.75 
L 8.796875 0.4375 
C 8.703125 -1.15625 8.703125 -1.265625 8.703125 -2.96875 
L 8.703125 -4.0625 
C 8.703125 -10.875 8.5 -13.6875 7.90625 -16.796875 
z
" id="URW_Palladio_L_Roman-91"/>
      <path d="M 21.59375 32.609375 
L 22.59375 33.3125 
L 57.40625 0 
C 64.40625 0 64.40625 0 65.40625 0 
C 66.703125 0 66.90625 0 71.90625 0 
L 71.90625 2.90625 
L 69.796875 3.109375 
C 68.296875 3.109375 66.703125 4.21875 63.59375 7.109375 
L 30.59375 38.296875 
L 57.203125 62.296875 
C 59.90625 64.703125 62.40625 66 65 66 
L 69.203125 66 
L 69.203125 69.015625 
C 62.90625 69.015625 62.90625 69.015625 61.203125 69.015625 
C 59.796875 69.015625 58.09375 69.015625 52.296875 69.015625 
L 52.296875 66.5 
C 52.296875 65.90625 51 64.21875 49.40625 62.609375 
L 21.59375 35.59375 
L 21.59375 57.203125 
C 21.59375 65.1875 22.09375 66 26.703125 66 
L 31.5 66 
L 31.5 69.015625 
C 24.203125 69.015625 22 69.015625 16.796875 69.015625 
C 11.796875 69.015625 9.40625 69.015625 2.203125 69.015625 
L 2.203125 66 
L 7 66 
C 11.59375 66 12.09375 65.1875 12.09375 57.21875 
L 12.09375 11.890625 
C 12.09375 3.90625 11.59375 3.109375 7 3.109375 
L 2.203125 3.109375 
L 2.203125 0 
C 8.09375 0 11.59375 0 16.796875 0 
C 22 0 25.59375 0 31.5 0 
L 31.5 3.109375 
L 26.703125 3.109375 
C 22.09375 3.109375 21.59375 3.90625 21.59375 11.90625 
z
" id="URW_Palladio_L_Roman-75"/>
      <path d="M 50.296875 47.015625 
L 49.40625 47.421875 
C 44.296875 45.3125 39.09375 43.90625 33.796875 43.3125 
L 33.796875 40.5 
L 37.5 40.5 
C 41.5 40.5 41.90625 39.796875 41.90625 33.140625 
L 41.90625 16.71875 
C 41.90625 14.5 40.5 11.671875 38.203125 9.359375 
C 35.40625 6.53125 32.203125 5.109375 28.296875 5.109375 
C 24.796875 5.109375 22 6.21875 20.40625 8.140625 
C 19 9.75 18.296875 12.875 18.296875 17.296875 
L 18.296875 47.015625 
L 17.40625 47.421875 
C 12.296875 45.3125 7.09375 43.90625 1.796875 43.3125 
L 1.796875 40.5 
L 5.5 40.5 
C 9.5 40.5 9.90625 39.796875 9.90625 33.15625 
L 9.90625 16.234375 
C 9.90625 9.171875 10.5 6.046875 12.296875 3.546875 
C 14.5 0.515625 18.296875 -1 24 -1 
C 28.5 -1 32.5 0.40625 35.203125 2.90625 
L 41.90625 9.140625 
C 41.90625 6.265625 41.796875 4.65625 41.5 0 
C 48.203125 0 48.296875 0 49.796875 0 
C 51.203125 0 51.203125 0 58.09375 0 
L 58.09375 2.90625 
L 54 3.3125 
C 50.59375 3.3125 50.296875 3.921875 50.296875 10.375 
z
" id="URW_Palladio_L_Roman-117"/>
      <path d="M 1 40.078125 
L 4.703125 40.078125 
C 8.703125 40.078125 9.09375 39.375 9.09375 32.734375 
L 9.09375 -17.84375 
C 9.09375 -24.1875 8.796875 -24.890625 5.40625 -24.890625 
L 0.796875 -24.890625 
L 0.796875 -28 
C 10.796875 -28 10.796875 -28 13.296875 -28 
C 15.796875 -28 15.796875 -28 25.796875 -28 
L 25.796875 -24.890625 
L 21.203125 -24.890625 
C 17.796875 -24.890625 17.5 -24.171875 17.5 -17.78125 
L 17.5 1.390625 
C 20.5 -0.40625 23.703125 -1.109375 28.203125 -1.109375 
C 31.09375 -1.109375 33.703125 -0.5 35.296875 0.5 
L 46.703125 7.890625 
C 50.703125 10.5 55.40625 20.78125 55.40625 27.1875 
C 55.40625 38.296875 46.203125 47 34.59375 47 
C 30.90625 47 27.296875 45.984375 25.703125 44.484375 
L 17.5 36.984375 
L 17.5 46.59375 
L 16.59375 47 
C 11.5 44.890625 6.296875 43.484375 1 42.890625 
z
M 17.5 30.6875 
C 17.5 32.078125 18 33.1875 19.296875 34.890625 
C 22.203125 38.578125 26.296875 40.484375 31.296875 40.484375 
C 40.703125 40.484375 46.703125 33.890625 46.703125 23.5 
C 46.703125 12.296875 40 4 31 4 
C 25.5 4 21.40625 5.8125 17.5 9.890625 
z
" id="URW_Palladio_L_Roman-112"/>
      <path d="M 25.5 64.28125 
C 25.796875 60.875 25.90625 58.578125 25.90625 54.265625 
L 25.90625 11.921875 
C 25.90625 4 25.40625 3.203125 20.796875 3.203125 
L 16 3.203125 
L 16 0 
C 21.90625 0 25.40625 0 30.59375 0 
C 35.796875 0 39.40625 0 45.296875 0 
L 45.296875 3.203125 
L 40.5 3.203125 
C 35.90625 3.203125 35.40625 4 35.40625 11.921875 
L 35.40625 54.265625 
C 35.40625 58.78125 35.5 60.984375 35.796875 64.28125 
L 51.296875 64.28125 
C 54.09375 64.28125 55.203125 63.390625 55.296875 61 
L 55.703125 53.125 
L 58.796875 53.125 
C 58.796875 59.53125 59 63.375 59.5 69 
C 52.296875 69 49 69 46.203125 69 
C 42.296875 69 39.40625 69 37.90625 69 
L 22.09375 69 
C 21.09375 69 15.703125 69 8.59375 69 
L 1.796875 69 
C 2.296875 63.375 2.5 59.53125 2.5 53.125 
L 5.59375 53.125 
L 6 61 
C 6.09375 63.390625 7.203125 64.28125 10 64.28125 
z
" id="URW_Palladio_L_Roman-84"/>
      <path d="M 9.796875 38.6875 
L 9.796875 9.671875 
C 9.796875 2.21875 13.09375 -1 20.796875 -1 
C 23.09375 -1 25.5 -0.5 26.09375 0.203125 
L 30.90625 5.515625 
L 29.59375 7.234375 
C 27.09375 5.8125 25.59375 5.3125 23.703125 5.3125 
C 19.796875 5.3125 18.203125 7.34375 18.203125 12.3125 
L 18.203125 38.890625 
L 31 38.890625 
L 31.90625 44 
L 18.203125 44 
L 18.203125 47.75 
C 18.203125 51.890625 18.5 55.421875 19.296875 61.734375 
L 18.09375 62.828125 
C 15.703125 61.328125 12.703125 60.03125 9.59375 59.03125 
C 9.90625 56.015625 10 54.109375 10 51.109375 
L 10 44.09375 
L 2.203125 40.59375 
L 2.203125 38.6875 
z
" id="URW_Palladio_L_Roman-116"/>
      <path d="M 43.703125 6.984375 
L 42.40625 7.984375 
C 36 4.203125 33.703125 3.3125 29.40625 3.3125 
C 22.90625 3.3125 17.5 6.21875 14.703125 11.109375 
C 12.796875 14.390625 12.09375 17.203125 11.90625 23 
L 26.5 23 
C 33.40625 23 37.703125 23 44.59375 24.125 
C 44.703125 25.53125 44.796875 26.453125 44.796875 27.671875 
C 44.796875 39.375 37.40625 47 26.203125 47 
C 22.5 47 18.203125 45.6875 14.09375 43.28125 
C 5.90625 38.578125 2.59375 32.359375 2.59375 21.9375 
C 2.59375 15.625 4.09375 10.21875 6.796875 6.40625 
C 10.796875 1.109375 17.5 -2 25 -2 
C 28.703125 -2 32.40625 -1.203125 36.5 0.578125 
C 39.203125 1.6875 41.296875 2.984375 41.703125 3.59375 
z
M 35.90625 26.40625 
C 30.703125 26.40625 28.296875 26.40625 24.703125 26.40625 
C 20.09375 26.40625 17.5 26.40625 12.09375 26.90625 
C 12.09375 31.671875 12.5 33.890625 13.796875 36.515625 
C 15.90625 40.96875 20.203125 43.6875 25 43.6875 
C 28.296875 43.6875 30.90625 42.359375 32.703125 39.59375 
C 34.90625 36.234375 35.59375 33.265625 35.90625 26.40625 
" id="URW_Palladio_L_Roman-101"/>
      <path d="M 24.5 73 
C 17.40625 73 17.09375 73 14.796875 73 
C 12.40625 73 11.90625 73 5.09375 73 
L 4.5 72.5 
L 4.5 69.890625 
L 4.90625 69.390625 
L 8.703125 69.390625 
C 11.40625 69.390625 13.5 68.796875 14.703125 67.796875 
C 15.703125 66.890625 16 65.484375 16 62.078125 
C 16 61.78125 16 59.78125 16.09375 56.96875 
L 16.09375 53.265625 
L 16.09375 1.75 
L 16.09375 -1.953125 
C 16 -4.859375 16 -6.671875 16 -6.96875 
C 16 -10.375 15.703125 -11.875 14.703125 -12.78125 
C 13.5 -13.78125 11.40625 -14.390625 8.703125 -14.390625 
L 4.90625 -14.390625 
L 4.5 -14.890625 
L 4.5 -17.5 
L 5.09375 -18 
C 12.09375 -18 12.296875 -18 14.796875 -18 
C 17.09375 -18 17.59375 -18 24.5 -18 
L 25.40625 -16.796875 
C 24.796875 -14.390625 24.703125 -11.28125 24.59375 -3.5625 
C 24.59375 -2.15625 24.59375 -0.859375 24.5 0.4375 
L 24.5 1.75 
L 24.5 53.265625 
L 24.5 54.5625 
C 24.59375 55.671875 24.59375 56.96875 24.59375 58.375 
C 24.59375 66.09375 24.796875 69.390625 25.40625 71.796875 
z
" id="URW_Palladio_L_Roman-93"/>
      <path d="M 2.296875 40.078125 
L 6 40.078125 
C 10 40.078125 10.40625 39.375 10.40625 32.71875 
L 10.40625 10.046875 
C 10.40625 3.703125 10.09375 3 6.703125 3 
L 2.09375 3 
L 2.09375 -0.109375 
C 9.296875 -0.109375 11.90625 -0.109375 14.40625 -0.109375 
C 16.40625 -0.109375 16.40625 -0.109375 28.703125 -0.109375 
L 28.703125 3 
L 23.5 3 
C 19 3 18.796875 3.296875 18.796875 9.96875 
L 18.796875 27.359375 
C 18.796875 33.421875 22.796875 38.484375 27.703125 38.484375 
C 30.703125 38.484375 32.796875 37.078125 34.40625 33.890625 
L 36.5 33.890625 
L 37.40625 45.890625 
C 36.296875 46.59375 34.5 47 32.703125 47 
C 29.703125 47 26.5 45.390625 24.40625 42.890625 
L 18.796875 36.28125 
L 18.796875 46.59375 
L 17.90625 47 
C 12.796875 44.890625 7.59375 43.484375 2.296875 42.890625 
z
" id="URW_Palladio_L_Roman-114"/>
      <path d="M 32.40625 8.40625 
L 31.90625 -0.015625 
C 38.40625 -0.015625 38.40625 -0.015625 39.703125 -0.015625 
C 40.203125 -0.015625 42.703125 -0.015625 47.09375 -0.015625 
L 47.09375 3 
L 43.203125 3 
C 40.796875 3 40.40625 3.8125 40.40625 8.71875 
L 40.40625 27.046875 
C 40.40625 41.6875 36.203125 47 24.59375 47 
C 20.296875 47 16.296875 45.890625 12.5 43.609375 
L 7.203125 40.390625 
L 7.203125 33.921875 
L 9.796875 33.21875 
L 11.09375 36.296875 
C 13.203125 40.984375 14.203125 41.6875 18.796875 41.6875 
C 28.203125 41.6875 32.09375 37.984375 32.40625 28.9375 
L 22.5 27.125 
C 8.90625 24.640625 3.203125 19.953125 3.203125 11.28125 
C 3.203125 3.5 7.90625 -1 15.796875 -1 
C 17.59375 -1 19.296875 -0.703125 20 -0.203125 
z
M 32.40625 12.59375 
C 29.5 8.5 23.203125 4.71875 19.296875 4.71875 
C 15.296875 4.71875 11.796875 8.40625 11.796875 12.6875 
C 11.796875 16.375 13.796875 19.859375 16.796875 21.75 
C 19.296875 23.25 24.796875 24.640625 32.40625 25.75 
z
" id="URW_Palladio_L_Roman-97"/>
     </defs>
     <g transform="translate(756.234513713 861.924461833)scale(0.28 -0.28)">
      <use transform="scale(0.9962640099626402)" xlink:href="#URW_Palladio_L_Roman-84"/>
      <use transform="translate(51.90495055164229 0.0)scale(0.9962640099626402)" xlink:href="#URW_Palladio_L_Roman-101"/>
      <use transform="translate(99.62524566080324 0.0)scale(0.9962640099626402)" xlink:href="#URW_Palladio_L_Roman-109"/>
      <use transform="translate(187.59491992917188 0.0)scale(0.9962640099626402)" xlink:href="#URW_Palladio_L_Roman-112"/>
      <use transform="translate(247.46931368209061 0.0)scale(0.9962640099626402)" xlink:href="#URW_Palladio_L_Roman-101"/>
      <use transform="translate(295.1896087912516 0.0)scale(0.9962640099626402)" xlink:href="#URW_Palladio_L_Roman-114"/>
      <use transform="translate(334.5415051223926 0.0)scale(0.9962640099626402)" xlink:href="#URW_Palladio_L_Roman-97"/>
      <use transform="translate(384.3547056205246 0.0)scale(0.9962640099626402)" xlink:href="#URW_Palladio_L_Roman-116"/>
      <use transform="translate(416.83179349412364 0.0)scale(0.9962640099626402)" xlink:href="#URW_Palladio_L_Roman-117"/>
      <use transform="translate(476.9055282193727 0.0)scale(0.9962640099626402)" xlink:href="#URW_Palladio_L_Roman-114"/>
      <use transform="translate(516.2574245505137 0.0)scale(0.9962640099626402)" xlink:href="#URW_Palladio_L_Roman-97"/>
      <use transform="translate(590.9772252977118 0.0)scale(0.9962640099626402)" xlink:href="#URW_Palladio_L_Roman-91"/>
      <use transform="translate(624.152455027047 0.0)scale(0.9962640099626402)" xlink:href="#URW_Palladio_L_Roman-75"/>
      <use transform="translate(696.4801489044988 0.0)scale(0.9962640099626402)" xlink:href="#URW_Palladio_L_Roman-93"/>
     </g>
    </g>
   </g>
   <g id="matplotlib.axis_2">
    <g id="ytick_1">
     <g id="line2d_18">
      <path clip-path="url(#p2ab3c4c7a5)" d="M 209.3625 746.510847 
L 1507.41 746.510847 
" style="fill:none;stroke:#000000;stroke-dasharray:1.000000,3.000000;stroke-dashoffset:0.0;stroke-width:0.5;"/>
     </g>
     <g id="line2d_19">
      <defs>
       <path d="M 0 0 
L 4 0 
" id="m24206ec44d" style="stroke:#000000;stroke-width:0.5;"/>
      </defs>
      <g>
       <use style="stroke:#000000;stroke-width:0.5;" x="209.3625" xlink:href="#m24206ec44d" y="746.510847458"/>
      </g>
     </g>
     <g id="line2d_20">
      <defs>
       <path d="M 0 0 
L -4 0 
" id="m321573c5a2" style="stroke:#000000;stroke-width:0.5;"/>
      </defs>
      <g>
       <use style="stroke:#000000;stroke-width:0.5;" x="1507.41" xlink:href="#m321573c5a2" y="746.510847458"/>
      </g>
     </g>
     <g id="text_7">
      <!-- $2.3$ -->
      <defs>
       <path d="M 12.40625 11.625 
C 9.40625 11.625 6.703125 8.8125 6.703125 5.8125 
C 6.703125 2.796875 9.40625 0 12.296875 0 
C 15.5 0 18.296875 2.703125 18.296875 5.8125 
C 18.296875 8.8125 15.5 11.625 12.40625 11.625 
" id="URW_Palladio_L_Roman-46"/>
      </defs>
      <g transform="translate(170.493259651 752.557204381)scale(0.28 -0.28)">
       <use transform="scale(0.9962640099626402)" xlink:href="#URW_Palladio_L_Roman-50"/>
       <use transform="translate(49.81320049813201 0.0)scale(0.9962640099626402)" xlink:href="#URW_Palladio_L_Roman-46"/>
       <use transform="translate(74.71980074719801 0.0)scale(0.9962640099626402)" xlink:href="#URW_Palladio_L_Roman-51"/>
      </g>
     </g>
    </g>
    <g id="ytick_2">
     <g id="line2d_21">
      <path clip-path="url(#p2ab3c4c7a5)" d="M 209.3625 631.678576 
L 1507.41 631.678576 
" style="fill:none;stroke:#000000;stroke-dasharray:1.000000,3.000000;stroke-dashoffset:0.0;stroke-width:0.5;"/>
     </g>
     <g id="line2d_22">
      <g>
       <use style="stroke:#000000;stroke-width:0.5;" x="209.3625" xlink:href="#m24206ec44d" y="631.678576271"/>
      </g>
     </g>
     <g id="line2d_23">
      <g>
       <use style="stroke:#000000;stroke-width:0.5;" x="1507.41" xlink:href="#m321573c5a2" y="631.678576271"/>
      </g>
     </g>
     <g id="text_8">
      <!-- $2.4$ -->
      <g transform="translate(170.493259651 637.724933194)scale(0.28 -0.28)">
       <use transform="scale(0.9962640099626402)" xlink:href="#URW_Palladio_L_Roman-50"/>
       <use transform="translate(49.81320049813201 0.0)scale(0.9962640099626402)" xlink:href="#URW_Palladio_L_Roman-46"/>
       <use transform="translate(74.71980074719801 0.0)scale(0.9962640099626402)" xlink:href="#URW_Palladio_L_Roman-52"/>
      </g>
     </g>
    </g>
    <g id="ytick_3">
     <g id="line2d_24">
      <path clip-path="url(#p2ab3c4c7a5)" d="M 209.3625 516.846305 
L 1507.41 516.846305 
" style="fill:none;stroke:#000000;stroke-dasharray:1.000000,3.000000;stroke-dashoffset:0.0;stroke-width:0.5;"/>
     </g>
     <g id="line2d_25">
      <g>
       <use style="stroke:#000000;stroke-width:0.5;" x="209.3625" xlink:href="#m24206ec44d" y="516.846305085"/>
      </g>
     </g>
     <g id="line2d_26">
      <g>
       <use style="stroke:#000000;stroke-width:0.5;" x="1507.41" xlink:href="#m321573c5a2" y="516.846305085"/>
      </g>
     </g>
     <g id="text_9">
      <!-- $2.5$ -->
      <defs>
       <path d="M 12.703125 60.578125 
C 25.59375 60.578125 31.203125 60.578125 43.203125 60.578125 
L 43.703125 61.046875 
C 43.5 62.75 43.5 63.5 43.5 64.75 
C 43.5 66.078125 43.5 66.828125 43.703125 68.53125 
L 43.203125 69 
C 35.703125 69 31.203125 69 25.796875 69 
C 20.296875 69 15.90625 69 8.40625 69 
L 7.90625 68.796875 
C 8 62.671875 8.09375 58.265625 8.09375 55.046875 
C 8.09375 46.515625 7.796875 36.875 7.5 32.453125 
L 9.5 31.84375 
C 14.203125 36.578125 16.90625 38 21.796875 38 
C 31.40625 38 37.40625 31.140625 37.40625 20.25 
C 37.40625 9.0625 31 2.5 20.09375 2.5 
C 14.703125 2.5 9.703125 4.328125 8.296875 6.9375 
L 3.703125 15.203125 
L 1.296875 13.796875 
C 3.59375 8.0625 4.796875 4.84375 6.203125 0.421875 
C 9 -1.109375 13 -2 17.296875 -2 
C 24 -2 31.09375 0.921875 36.59375 5.75 
C 42.703125 11.1875 45.90625 18.03125 45.90625 25.46875 
C 45.90625 36.859375 37.796875 44.90625 26.40625 44.90625 
C 21.59375 44.90625 18 43.609375 11.796875 39.90625 
z
" id="URW_Palladio_L_Roman-53"/>
      </defs>
      <g transform="translate(170.493259651 522.892662008)scale(0.28 -0.28)">
       <use transform="scale(0.9962640099626402)" xlink:href="#URW_Palladio_L_Roman-50"/>
       <use transform="translate(49.81320049813201 0.0)scale(0.9962640099626402)" xlink:href="#URW_Palladio_L_Roman-46"/>
       <use transform="translate(74.71980074719801 0.0)scale(0.9962640099626402)" xlink:href="#URW_Palladio_L_Roman-53"/>
      </g>
     </g>
    </g>
    <g id="ytick_4">
     <g id="line2d_27">
      <path clip-path="url(#p2ab3c4c7a5)" d="M 209.3625 402.014034 
L 1507.41 402.014034 
" style="fill:none;stroke:#000000;stroke-dasharray:1.000000,3.000000;stroke-dashoffset:0.0;stroke-width:0.5;"/>
     </g>
     <g id="line2d_28">
      <g>
       <use style="stroke:#000000;stroke-width:0.5;" x="209.3625" xlink:href="#m24206ec44d" y="402.014033898"/>
      </g>
     </g>
     <g id="line2d_29">
      <g>
       <use style="stroke:#000000;stroke-width:0.5;" x="1507.41" xlink:href="#m321573c5a2" y="402.014033898"/>
      </g>
     </g>
     <g id="text_10">
      <!-- $2.6$ -->
      <g transform="translate(170.493259651 408.060390822)scale(0.28 -0.28)">
       <use transform="scale(0.9962640099626402)" xlink:href="#URW_Palladio_L_Roman-50"/>
       <use transform="translate(49.81320049813201 0.0)scale(0.9962640099626402)" xlink:href="#URW_Palladio_L_Roman-46"/>
       <use transform="translate(74.71980074719801 0.0)scale(0.9962640099626402)" xlink:href="#URW_Palladio_L_Roman-54"/>
      </g>
     </g>
    </g>
    <g id="ytick_5">
     <g id="line2d_30">
      <path clip-path="url(#p2ab3c4c7a5)" d="M 209.3625 287.181763 
L 1507.41 287.181763 
" style="fill:none;stroke:#000000;stroke-dasharray:1.000000,3.000000;stroke-dashoffset:0.0;stroke-width:0.5;"/>
     </g>
     <g id="line2d_31">
      <g>
       <use style="stroke:#000000;stroke-width:0.5;" x="209.3625" xlink:href="#m24206ec44d" y="287.181762712"/>
      </g>
     </g>
     <g id="line2d_32">
      <g>
       <use style="stroke:#000000;stroke-width:0.5;" x="1507.41" xlink:href="#m321573c5a2" y="287.181762712"/>
      </g>
     </g>
     <g id="text_11">
      <!-- $2.7$ -->
      <defs>
       <path d="M 5.59375 0.5 
L 6.5 -0.796875 
C 10.40625 -0.5 10.40625 -0.5 11.09375 -0.5 
C 11.796875 -0.5 11.796875 -0.5 15.703125 -0.796875 
C 19.90625 10.140625 24.796875 20.578125 31.40625 32.609375 
L 49.703125 65.609375 
L 49.703125 68.3125 
C 38.90625 68.3125 35.40625 68.3125 27.296875 68.3125 
C 20 68.3125 15.09375 68.3125 5.40625 68.3125 
L 4.40625 68.109375 
C 4.703125 58.59375 4.703125 58.59375 4.703125 57.578125 
C 4.703125 56.46875 4.703125 56.46875 4.40625 47.359375 
L 7.40625 47.359375 
L 8.09375 52.96875 
C 8.90625 59.203125 9.59375 60 14.203125 60 
L 40.90625 60 
C 36.90625 51.765625 33.796875 45.953125 30 39.828125 
z
" id="URW_Palladio_L_Roman-55"/>
      </defs>
      <g transform="translate(170.493259651 293.228119635)scale(0.28 -0.28)">
       <use transform="scale(0.9962640099626402)" xlink:href="#URW_Palladio_L_Roman-50"/>
       <use transform="translate(49.81320049813201 0.0)scale(0.9962640099626402)" xlink:href="#URW_Palladio_L_Roman-46"/>
       <use transform="translate(74.71980074719801 0.0)scale(0.9962640099626402)" xlink:href="#URW_Palladio_L_Roman-55"/>
      </g>
     </g>
    </g>
    <g id="ytick_6">
     <g id="line2d_33">
      <path clip-path="url(#p2ab3c4c7a5)" d="M 209.3625 172.349492 
L 1507.41 172.349492 
" style="fill:none;stroke:#000000;stroke-dasharray:1.000000,3.000000;stroke-dashoffset:0.0;stroke-width:0.5;"/>
     </g>
     <g id="line2d_34">
      <g>
       <use style="stroke:#000000;stroke-width:0.5;" x="209.3625" xlink:href="#m24206ec44d" y="172.349491525"/>
      </g>
     </g>
     <g id="line2d_35">
      <g>
       <use style="stroke:#000000;stroke-width:0.5;" x="1507.41" xlink:href="#m321573c5a2" y="172.349491525"/>
      </g>
     </g>
     <g id="text_12">
      <!-- $2.8$ -->
      <g transform="translate(170.493259651 178.395848449)scale(0.28 -0.28)">
       <use transform="scale(0.9962640099626402)" xlink:href="#URW_Palladio_L_Roman-50"/>
       <use transform="translate(49.81320049813201 0.0)scale(0.9962640099626402)" xlink:href="#URW_Palladio_L_Roman-46"/>
       <use transform="translate(74.71980074719801 0.0)scale(0.9962640099626402)" xlink:href="#URW_Palladio_L_Roman-56"/>
      </g>
     </g>
    </g>
    <g id="text_13">
     <!-- $\ln (I_{\mathtt{th}})$ -->
     <defs>
      <path d="M 2.296875 66.5 
L 7.90625 66.5 
C 9.703125 66.5 10.40625 65.390625 10.40625 62.375 
L 10.40625 10.171875 
C 10.40625 3.8125 10.09375 3.109375 6.703125 3.109375 
L 2.09375 3.109375 
L 2.09375 0 
C 12.09375 0 12.09375 0 14.59375 0 
C 17.09375 0 17.09375 0 27.09375 0 
L 27.09375 3.109375 
L 22.5 3.109375 
C 19.09375 3.109375 18.796875 3.8125 18.796875 10.15625 
L 18.796875 72.203125 
L 17.90625 73.015625 
C 13.5 71.3125 10.203125 70.5 2.296875 69.296875 
z
" id="URW_Palladio_L_Roman-108"/>
      <path d="M 41.796875 29.359375 
C 41.796875 39.171875 37.203125 43.796875 29 43.796875 
C 22.203125 43.796875 17.796875 40 16.09375 38.09375 
L 16.09375 56.9375 
C 16.09375 60.015625 15.5 61 12.09375 61 
L 5.5 61 
C 4.09375 61 1.5 61 1.5 58.109375 
C 1.5 55.203125 4.09375 55.203125 5.5 55.203125 
L 9.59375 55.203125 
L 9.59375 5.796875 
L 5.5 5.796875 
C 4.09375 5.796875 1.5 5.796875 1.5 2.90625 
C 1.5 0 4.09375 0 5.5 0 
L 20.203125 0 
C 21.59375 0 24.203125 0 24.203125 2.90625 
C 24.203125 5.796875 21.59375 5.796875 20.203125 5.796875 
L 16.09375 5.796875 
L 16.09375 23.953125 
C 16.09375 33.671875 22.90625 38 28.296875 38 
C 34.09375 38 35.296875 34.671875 35.296875 28.96875 
L 35.296875 5.796875 
L 31.203125 5.796875 
C 29.796875 5.796875 27.203125 5.796875 27.203125 2.90625 
C 27.203125 0 29.796875 0 31.203125 0 
L 45.90625 0 
C 47.296875 0 49.90625 0 49.90625 2.90625 
C 49.90625 5.796875 47.296875 5.796875 45.90625 5.796875 
L 41.796875 5.796875 
z
" id="CMTT12-104"/>
      <path d="M 28.90625 25.25 
C 28.90625 33.09375 27.796875 45.25 22.296875 56.59375 
C 16.296875 68.96875 7.703125 75.5 6.703125 75.5 
C 6.09375 75.5 5.703125 75.09375 5.703125 74.484375 
C 5.703125 74.1875 5.703125 73.984375 7.59375 72.1875 
C 17.40625 62.234375 23.09375 46.25 23.09375 25.25 
C 23.09375 8.0625 19.40625 -9.640625 7 -22.296875 
C 5.703125 -23.5 5.703125 -23.703125 5.703125 -24 
C 5.703125 -24.609375 6.09375 -25 6.703125 -25 
C 7.703125 -25 16.703125 -18.171875 22.59375 -5.40625 
C 27.703125 5.65625 28.90625 16.796875 28.90625 25.25 
" id="CMR10-41"/>
      <path d="M 41 -0.109375 
C 47.09375 -0.109375 47.203125 -0.109375 48.90625 -0.109375 
C 50.296875 -0.109375 50.296875 -0.109375 57.203125 -0.109375 
L 57.203125 2.796875 
L 53.09375 3.203125 
C 49.703125 3.203125 49.40625 3.8125 49.40625 10.21875 
L 49.40625 29.5625 
C 49.40625 41.28125 43.90625 47 32.703125 47 
C 29 47 26.90625 46.296875 24.796875 44.484375 
L 17.203125 37.875 
L 17.203125 46.59375 
L 16.296875 47 
C 11.203125 44.890625 6 43.484375 0.703125 42.890625 
L 0.703125 40.078125 
L 4.40625 40.078125 
C 8.40625 40.078125 8.796875 39.375 8.796875 32.71875 
L 8.796875 10.046875 
C 8.796875 3.703125 8.5 3 5.09375 3 
L 0.59375 3 
L 0.59375 -0.109375 
C 7.40625 -0.109375 10.09375 -0.109375 13 -0.109375 
C 15.90625 -0.109375 18.59375 -0.109375 25.40625 -0.109375 
L 25.40625 3 
L 20.90625 3 
C 17.5 3 17.203125 3.703125 17.203125 10.046875 
L 17.203125 31.421875 
C 17.203125 35.9375 23.796875 40.875 29.90625 40.875 
C 36.59375 40.875 41 35.890625 41 28.21875 
z
" id="URW_Palladio_L_Roman-110"/>
      <path d="M 21.59375 37.203125 
L 37.796875 37.203125 
C 39.203125 37.203125 41.796875 37.203125 41.796875 40.109375 
C 41.796875 43 39.203125 43 37.796875 43 
L 21.59375 43 
L 21.59375 51.328125 
C 21.59375 53.15625 21.59375 55.5 18.40625 55.5 
C 15.09375 55.5 15.09375 53.15625 15.09375 51.328125 
L 15.09375 43 
L 6.59375 43 
C 5.203125 43 2.5 43 2.5 40.109375 
C 2.5 37.203125 5.09375 37.203125 6.5 37.203125 
L 15.09375 37.203125 
L 15.09375 12.125 
C 15.09375 2.875 21.5 -0.5 28.703125 -0.5 
C 34.09375 -0.5 44 2.171875 44 12.34375 
C 44 14.34375 44 16.53125 40.703125 16.53125 
C 37.5 16.53125 37.5 14.34375 37.5 12.265625 
C 37.40625 6.296875 31.703125 5.296875 29.40625 5.296875 
C 21.59375 5.296875 21.59375 10.265625 21.59375 12.640625 
z
" id="CMTT12-116"/>
      <path d="M 33.09375 -24 
C 33.09375 -23.703125 33.09375 -23.5 31.40625 -21.796875 
C 18.90625 -9.125 15.703125 9.875 15.703125 25.25 
C 15.703125 42.734375 19.5 60.234375 31.796875 72.78125 
C 33.09375 73.984375 33.09375 74.1875 33.09375 74.484375 
C 33.09375 75.1875 32.703125 75.5 32.09375 75.5 
C 31.09375 75.5 22.09375 68.671875 16.203125 55.890625 
C 11.09375 44.84375 9.90625 33.6875 9.90625 25.25 
C 9.90625 17.40625 11 5.25 16.5 -6.109375 
C 22.5 -18.46875 31.09375 -25 32.09375 -25 
C 32.703125 -25 33.09375 -24.703125 33.09375 -24 
" id="CMR10-40"/>
      <path d="M 10.296875 66.21875 
L 15 66.21875 
C 17.40625 66.21875 18.5 65.390625 18.5 63.625 
C 18.5 62.9375 17.90625 57.65625 17.59375 55.96875 
L 10.40625 12.75 
C 8.90625 3.875 8.59375 3.390625 4.59375 3.078125 
L 1 2.78125 
L 0.703125 0 
L 3.90625 0 
L 13.296875 0 
L 22.703125 0 
L 25.90625 0 
L 26.203125 2.796875 
L 21 2.796875 
C 18.40625 3 17.40625 3.703125 17.40625 5.6875 
C 17.40625 6.296875 17.5 7.390625 17.59375 7.78125 
L 26.5 61.125 
C 27.203125 65.015625 27.703125 65.515625 31.59375 65.921875 
L 35.09375 66.21875 
L 35.40625 69 
L 34.5 69 
L 24.796875 69 
C 23.09375 69 21.296875 69 17 69 
L 10.59375 69 
z
" id="URW_Palladio_L_Italic-73"/>
     </defs>
     <g transform="translate(157.626914938 487.786344543)rotate(-90.0)scale(0.28 -0.28)">
      <use transform="translate(0.0 14.943914544092468)scale(0.9962640099626402)" xlink:href="#URW_Palladio_L_Roman-108"/>
      <use transform="translate(28.990361461900687 14.943914544092468)scale(0.9962640099626402)" xlink:href="#URW_Palladio_L_Roman-110"/>
      <use transform="translate(88.21772175143992 14.943914544092468)scale(1.0381069159596825)" xlink:href="#CMR10-40"/>
      <use transform="translate(135.93877694971982 14.943914544092468)scale(0.9962640099626402)" xlink:href="#URW_Palladio_L_Italic-73"/>
      <use transform="translate(167.86907191294367 0.0)scale(0.7571551749299502)" xlink:href="#CMTT12-116"/>
      <use transform="translate(206.83102732429174 0.0)scale(0.7571551749299502)" xlink:href="#CMTT12-104"/>
      <use transform="translate(247.53641434950967 14.943914544092468)scale(1.0381069159596825)" xlink:href="#CMR10-41"/>
     </g>
    </g>
   </g>
   <g id="text_14">
    <!-- $\ln I_{th}=\frac{T}{T_{0}} + \ln I_{0}$ -->
    <defs>
     <path d="M 23.59375 71.671875 
L 22.40625 72.765625 
C 17.203125 70.1875 13.59375 69.28125 6.40625 68.59375 
L 6 66.5 
L 10.796875 66.5 
C 13.203125 66.5 14.203125 65.796875 14.203125 64.109375 
C 14.203125 63.3125 14.09375 62.421875 14 61.71875 
L 9.796875 38.46875 
C 7 23.4375 3.09375 6.34375 1 0.09375 
L 1.703125 -1 
L 8.59375 0.59375 
C 10.203125 12.078125 11.90625 18.15625 14.796875 23.4375 
C 19.203125 31.53125 29.59375 41.203125 33.796875 41.203125 
C 35.09375 41.203125 36 40.3125 36 39.015625 
C 36 37.21875 35.296875 33.421875 34.5 30.125 
L 29.40625 10.578125 
C 28.5 6.96875 28.09375 4.78125 28.09375 2.890625 
C 28.09375 0.484375 29.203125 -1 31.09375 -1 
C 33.703125 -1 37.296875 1.078125 47.09375 8.375 
L 46.09375 10.171875 
L 43.5 8.484375 
C 40.59375 6.578125 38.40625 5.484375 37.40625 5.484375 
C 36.703125 5.484375 36.09375 6.375 36.09375 7.46875 
C 36.09375 8.46875 36.203125 9.28125 36.796875 11.46875 
L 43.203125 37.015625 
C 43.796875 39.609375 44.296875 42.703125 44.296875 44.390625 
C 44.296875 46.609375 43.203125 48 41.40625 48 
C 38 48 31.90625 44.703125 25.59375 39.421875 
C 22.09375 36.515625 20.40625 34.71875 15.796875 28.828125 
L 13.796875 26.34375 
z
" id="URW_Palladio_L_Italic-104"/>
     <path d="M 12.5 38.515625 
L 6.90625 10.484375 
C 6.796875 9.78125 6.703125 9.609375 6.40625 8.40625 
C 5.796875 5.640625 5.59375 4.140625 5.59375 2.96875 
C 5.59375 0.484375 6.703125 -1 8.59375 -1 
C 12.09375 -1 15.59375 0.96875 23.40625 7.234375 
L 24.90625 8.40625 
L 26.5 9.703125 
L 25.5 11.484375 
L 21 8.40625 
C 18.09375 6.4375 16.09375 5.4375 15 5.4375 
C 14.09375 5.4375 13.59375 6.234375 13.59375 7.40625 
C 13.59375 9.984375 15 18.015625 17.90625 32.375 
L 19.203125 38.515625 
L 29.90625 38.515625 
L 31 43.5 
C 27.203125 43 23.796875 43 20 43 
C 21.59375 52.3125 22.703125 57.171875 24.5 62.515625 
L 23.40625 64.015625 
C 21.40625 62.828125 18.703125 61.625 15.59375 60.4375 
L 13.09375 43.5 
C 8.703125 41.40625 6.09375 40.3125 4.296875 39.8125 
L 4.09375 38.515625 
z
" id="URW_Palladio_L_Italic-116"/>
     <path d="M 68.703125 32 
C 70.203125 32 72.09375 32 72.09375 34.015625 
C 72.09375 36.015625 70.203125 36.015625 68.796875 36.015625 
L 8.90625 36.015625 
C 7.5 36.015625 5.59375 36.015625 5.59375 34.015625 
C 5.59375 32 7.5 32 9 32 
z
M 68.796875 13 
C 70.203125 13 72.09375 13 72.09375 15.015625 
C 72.09375 17.015625 70.203125 17.015625 68.703125 17.015625 
L 9 17.015625 
C 7.5 17.015625 5.59375 17.015625 5.59375 15.015625 
C 5.59375 13 7.5 13 8.90625 13 
z
" id="CMR10-61"/>
     <path d="M 40.90625 23 
L 68.796875 23 
C 70.203125 23 72.09375 23 72.09375 25 
C 72.09375 27.015625 70.203125 27.015625 68.796875 27.015625 
L 40.90625 27.015625 
L 40.90625 55.1875 
C 40.90625 56.59375 40.90625 58.5 38.90625 58.5 
C 36.90625 58.5 36.90625 56.59375 36.90625 55.1875 
L 36.90625 27.015625 
L 8.90625 27.015625 
C 7.5 27.015625 5.59375 27.015625 5.59375 25 
C 5.59375 23 7.5 23 8.90625 23 
L 36.90625 23 
L 36.90625 -5.171875 
C 36.90625 -6.578125 36.90625 -8.5 38.90625 -8.5 
C 40.90625 -8.5 40.90625 -6.578125 40.90625 -5.171875 
z
" id="CMR10-43"/>
     <path d="M 39 64.625 
L 46.296875 64.625 
C 54.09375 64.625 57.703125 64.125 58 62.9375 
C 58.296875 62.140625 58.5 60.234375 58.40625 59.234375 
L 58 52.859375 
L 60.796875 52.859375 
L 63.5 69 
L 54.40625 69 
C 45.59375 69 38.796875 69 35.296875 69 
C 31.59375 69 25.203125 69 16.59375 69 
L 7.09375 69 
L 5.296875 52.859375 
L 8.203125 52.859375 
L 9.703125 58.84375 
C 10.203125 61.046875 10.90625 62.640625 11.5 63.328125 
C 12.09375 64.03125 15.90625 64.625 19.59375 64.625 
L 30.796875 64.625 
L 22.203125 12.515625 
C 20.59375 3.40625 20.40625 3.109375 16.40625 2.796875 
L 11.296875 2.796875 
L 10.90625 0 
L 16.59375 0 
C 20.59375 0 23.5 0 25.09375 0 
C 27 0 30.09375 0 34 0 
L 38.40625 0 
L 38.703125 2.796875 
L 32.796875 2.796875 
C 30.203125 2.796875 29.203125 3.59375 29.203125 5.703125 
C 29.203125 6.609375 29.296875 7.3125 29.59375 9.21875 
z
" id="URW_Palladio_L_Italic-84"/>
    </defs>
    <g transform="translate(1142.59689386 402.014033898)scale(0.3 -0.3)">
     <use transform="translate(0.0 49.15167973614571)scale(0.9962640099626402)" xlink:href="#URW_Palladio_L_Roman-108"/>
     <use transform="translate(28.990361461900687 49.15167973614571)scale(0.9962640099626402)" xlink:href="#URW_Palladio_L_Roman-110"/>
     <use transform="translate(109.80343183277554 49.15167973614571)scale(0.9962640099626402)" xlink:href="#URW_Palladio_L_Italic-73"/>
     <use transform="translate(142.68014416154267 28.302313589663765)scale(0.7571551749299502)" xlink:href="#URW_Palladio_L_Italic-116"/>
     <use transform="translate(170.16414580576745 28.302313589663765)scale(0.7571551749299502)" xlink:href="#URW_Palladio_L_Italic-104"/>
     <use transform="translate(238.38570144672326 49.15167973614571)scale(1.0381069159596825)" xlink:href="#CMR10-61"/>
     <use transform="translate(362.57280133581105 88.40447564796078)scale(0.7571551749299502)" xlink:href="#URW_Palladio_L_Italic-84"/>
     <use transform="translate(351.12753140080173 14.780571392434622)scale(0.7571551749299502)" xlink:href="#URW_Palladio_L_Italic-84"/>
     <use transform="translate(392.6567790220268 0.0)scale(0.5977644866905356)" xlink:href="#URW_Palladio_L_Roman-48"/>
     <use transform="translate(444.8557016413061 49.15167973614571)scale(1.0381069159596825)" xlink:href="#CMR10-43"/>
     <use transform="translate(546.1691508405978 49.15167973614571)scale(0.9962640099626402)" xlink:href="#URW_Palladio_L_Roman-108"/>
     <use transform="translate(575.1595123024985 49.15167973614571)scale(0.9962640099626402)" xlink:href="#URW_Palladio_L_Roman-110"/>
     <use transform="translate(655.9725826733734 49.15167973614571)scale(0.9962640099626402)" xlink:href="#URW_Palladio_L_Italic-73"/>
     <use transform="translate(687.9028776365972 31.710249163293902)scale(0.7571551749299502)" xlink:href="#URW_Palladio_L_Roman-48"/>
     <path d="M 349.196844 72.065767 
L 423.043135 72.065767 
L 423.043135 76.050808 
L 349.196844 76.050808 
L 349.196844 72.065767 
z
"/>
    </g>
   </g>
   <g id="text_15">
    <!-- $T_0 = (157 \pm 4)$ K -->
    <defs>
     <path d="M 40.90625 31 
L 68.703125 31 
C 70.40625 31 72.203125 31 72.203125 33 
C 72.203125 35 70.40625 35 68.703125 35 
L 40.90625 35 
L 40.90625 62.78125 
C 40.90625 64.390625 40.90625 66.5 38.90625 66.5 
C 36.90625 66.5 36.90625 64.6875 36.90625 63.09375 
L 36.90625 35 
L 9 35 
C 7.296875 35 5.5 35 5.5 33 
C 5.5 31 7.296875 31 9 31 
L 36.90625 31 
L 36.90625 4 
L 9 4 
C 7.296875 4 5.5 4 5.5 2 
C 5.5 0 7.296875 0 9 0 
L 68.703125 0 
C 70.40625 0 72.203125 0 72.203125 2 
C 72.203125 4 70.40625 4 68.703125 4 
L 40.90625 4 
z
" id="CMSY10-6"/>
     <path d="M 6.703125 56 
L 7.703125 56 
L 20.59375 61.8125 
C 20.703125 61.90625 20.796875 61.90625 20.90625 61.90625 
C 21.5 61.90625 21.703125 61.015625 21.703125 58.609375 
L 21.703125 9.578125 
C 21.703125 4.3125 20.59375 3.203125 15.203125 3.203125 
L 9.59375 3.203125 
L 9.59375 0 
C 25 0 25 0 26.09375 0 
C 27.40625 0 29.59375 0 33 0 
C 34.203125 0 37.703125 0 41.796875 0 
L 41.796875 3.203125 
L 36.59375 3.203125 
C 31.09375 3.203125 30.09375 4.3125 30.09375 9.5625 
L 30.09375 69.421875 
L 28.703125 69.921875 
C 22.203125 66.515625 15.09375 63.515625 6 60.3125 
z
" id="URW_Palladio_L_Roman-49"/>
    </defs>
    <g transform="translate(1142.59689386 459.430169492)scale(0.3 -0.3)">
     <use transform="translate(0.0 17.441430572851807)scale(0.9962640099626402)" xlink:href="#URW_Palladio_L_Italic-84"/>
     <use transform="translate(54.6441445166563 0.0)scale(0.7571551749299502)" xlink:href="#URW_Palladio_L_Roman-48"/>
     <use transform="translate(121.91926759028644 17.441430572851807)scale(1.0381069159596825)" xlink:href="#CMR10-61"/>
     <use transform="translate(232.78019621244553 17.441430572851807)scale(1.0381069159596825)" xlink:href="#CMR10-40"/>
     <use transform="translate(274.27460134845893 17.441430572851807)scale(0.9962640099626402)" xlink:href="#URW_Palladio_L_Roman-49"/>
     <use transform="translate(324.08780184659093 17.441430572851807)scale(0.9962640099626402)" xlink:href="#URW_Palladio_L_Roman-53"/>
     <use transform="translate(373.90100234472294 17.441430572851807)scale(0.9962640099626402)" xlink:href="#URW_Palladio_L_Roman-55"/>
     <use transform="translate(444.33125535102744 17.441430572851807)scale(1.0381069159596825)" xlink:href="#CMSY10-6"/>
     <use transform="translate(545.6447045503191 17.441430572851807)scale(0.9962640099626402)" xlink:href="#URW_Palladio_L_Roman-52"/>
     <use transform="translate(596.7032046573397 17.441430572851807)scale(1.0381069159596825)" xlink:href="#CMR10-41"/>
     <use transform="translate(663.1042100424191 17.441430572851807)scale(0.9962640099626402)" xlink:href="#URW_Palladio_L_Roman-75"/>
    </g>
   </g>
   <g id="text_16">
    <!-- $I_0 = (1.71 \pm 0.09)$ mA -->
    <defs>
     <path d="M 40.796875 70.5 
L 37.59375 70.5 
C 35.796875 66.171875 34.296875 62.46875 33.703125 60.96875 
L 28.40625 48.8125 
L 10.59375 8.15625 
C 9.40625 5.234375 7.40625 3.421875 5.203125 3.21875 
L 1.5 2.921875 
L 1.5 0 
C 10.796875 0 10.796875 0 12.40625 0 
C 13.703125 0 13.703125 0 24.5 0 
L 24.5 2.921875 
L 20.796875 3.21875 
C 17.296875 3.53125 16 4.21875 16 5.796875 
C 16 7.09375 17.40625 11.359375 19.5 16.34375 
L 22.296875 23 
L 51.09375 23 
L 55.703125 11.453125 
C 57.40625 7.234375 57.796875 5.921875 57.796875 5.03125 
C 57.796875 3.921875 56.203125 3.21875 53.703125 3.015625 
L 49 3.015625 
L 49 0 
C 61.296875 0 61.296875 0 62.90625 0 
C 64.796875 0 64.796875 0 75.59375 0 
L 75.59375 2.921875 
L 72.203125 3.21875 
C 69.59375 3.625 68.5 5.328125 65 13.453125 
z
M 24 27 
L 36.703125 57.078125 
L 49.296875 27 
z
" id="URW_Palladio_L_Roman-65"/>
     <path d="M 9.59375 -1.65625 
C 20.703125 1.953125 25.5 4.25 30.90625 8.84375 
C 40.59375 17.15625 45.703125 28.671875 45.703125 42.078125 
C 45.703125 59 37.59375 69.296875 24.40625 69.296875 
C 11.59375 69.296875 2 59.296875 2 45.90625 
C 2 34.390625 9.5 26 19.90625 26 
C 23.296875 26 27.203125 27.09375 29 28.59375 
L 36 34.40625 
C 35.203125 17.578125 24.296875 5.25 6.203125 0.84375 
L 6.203125 0.046875 
z
M 24 66 
C 28.5 66 31.796875 64.09375 34 60.09375 
C 35.796875 56.890625 37 52 37 47.5 
C 37 38.296875 31.703125 32.109375 24 32.109375 
C 16 32.109375 10.59375 39.203125 10.59375 49.59375 
C 10.59375 59.703125 15.796875 66 24 66 
" id="URW_Palladio_L_Roman-57"/>
    </defs>
    <g transform="translate(1142.59689386 516.846305085)scale(0.3 -0.3)">
     <use transform="translate(0.0 17.441430572851807)scale(0.9962640099626402)" xlink:href="#URW_Palladio_L_Italic-73"/>
     <use transform="translate(31.93029496322385 0.0)scale(0.7571551749299502)" xlink:href="#URW_Palladio_L_Roman-48"/>
     <use transform="translate(99.205418036854 17.441430572851807)scale(1.0381069159596825)" xlink:href="#CMR10-61"/>
     <use transform="translate(210.0663466590131 17.441430572851807)scale(1.0381069159596825)" xlink:href="#CMR10-40"/>
     <use transform="translate(251.56075179502648 17.441430572851807)scale(0.9962640099626402)" xlink:href="#URW_Palladio_L_Roman-49"/>
     <use transform="translate(301.3739522931585 17.441430572851807)scale(0.9962640099626402)" xlink:href="#URW_Palladio_L_Roman-46"/>
     <use transform="translate(326.2805525422245 17.441430572851807)scale(0.9962640099626402)" xlink:href="#URW_Palladio_L_Roman-55"/>
     <use transform="translate(376.0937530403565 17.441430572851807)scale(0.9962640099626402)" xlink:href="#URW_Palladio_L_Roman-49"/>
     <use transform="translate(446.524006046661 17.441430572851807)scale(1.0381069159596825)" xlink:href="#CMSY10-6"/>
     <use transform="translate(547.8374552459527 17.441430572851807)scale(0.9962640099626402)" xlink:href="#URW_Palladio_L_Roman-48"/>
     <use transform="translate(597.6506557440847 17.441430572851807)scale(0.9962640099626402)" xlink:href="#URW_Palladio_L_Roman-46"/>
     <use transform="translate(622.5572559931508 17.441430572851807)scale(0.9962640099626402)" xlink:href="#URW_Palladio_L_Roman-48"/>
     <use transform="translate(672.3704564912828 17.441430572851807)scale(0.9962640099626402)" xlink:href="#URW_Palladio_L_Roman-57"/>
     <use transform="translate(723.4289565983033 17.441430572851807)scale(1.0381069159596825)" xlink:href="#CMR10-41"/>
     <use transform="translate(789.8299619833828 17.441430572851807)scale(0.9962640099626402)" xlink:href="#URW_Palladio_L_Roman-109"/>
     <use transform="translate(877.7996362517513 17.441430572851807)scale(0.9962640099626402)" xlink:href="#URW_Palladio_L_Roman-65"/>
    </g>
   </g>
  </g>
 </g>
 <defs>
  <clipPath id="p2ab3c4c7a5">
   <rect height="715.68" width="1298.0475" x="209.3625" y="89.46"/>
  </clipPath>
 </defs>
</svg>
