<?xml version="1.0" encoding="utf-8" standalone="no"?>
<!DOCTYPE svg PUBLIC "-//W3C//DTD SVG 1.1//EN"
  "http://www.w3.org/Graphics/SVG/1.1/DTD/svg11.dtd">
<!-- Created with matplotlib (http://matplotlib.org/) -->
<svg height="894pt" version="1.1" viewBox="0 0 1674 894" width="1674pt" xmlns="http://www.w3.org/2000/svg" xmlns:xlink="http://www.w3.org/1999/xlink">
 <defs>
  <style type="text/css">
*{stroke-linecap:butt;stroke-linejoin:round;stroke-miterlimit:100000;}
  </style>
 </defs>
 <g id="figure_1">
  <g id="patch_1">
   <path d="M 0 894.6 
L 1674.9 894.6 
L 1674.9 0 
L 0 0 
z
" style="fill:#ffffff;"/>
  </g>
  <g id="axes_1">
   <g id="patch_2">
    <path d="M 209.3625 805.14 
L 1507.41 805.14 
L 1507.41 89.46 
L 209.3625 89.46 
z
" style="fill:#ffffff;"/>
   </g>
   <g id="LineCollection_1">
    <path clip-path="url(#p8f39479aaa)" d="M 258.039281 726.98869 
L 258.039281 712.304728 
" style="fill:none;stroke:#ff0000;"/>
    <path clip-path="url(#p8f39479aaa)" d="M 339.16725 696.80499 
L 339.16725 680.489477 
" style="fill:none;stroke:#ff0000;"/>
    <path clip-path="url(#p8f39479aaa)" d="M 420.295219 681.305252 
L 420.295219 664.989739 
" style="fill:none;stroke:#ff0000;"/>
    <path clip-path="url(#p8f39479aaa)" d="M 501.423188 654.384655 
L 501.423188 646.226898 
" style="fill:none;stroke:#ff0000;"/>
    <path clip-path="url(#p8f39479aaa)" d="M 582.551156 629.095609 
L 582.551156 619.306301 
" style="fill:none;stroke:#ff0000;"/>
    <path clip-path="url(#p8f39479aaa)" d="M 663.679125 602.990788 
L 663.679125 591.569928 
" style="fill:none;stroke:#ff0000;"/>
    <path clip-path="url(#p8f39479aaa)" d="M 744.807094 573.622863 
L 744.807094 562.202004 
" style="fill:none;stroke:#ff0000;"/>
    <path clip-path="url(#p8f39479aaa)" d="M 825.935063 544.254939 
L 825.935063 531.202528 
" style="fill:none;stroke:#ff0000;"/>
    <path clip-path="url(#p8f39479aaa)" d="M 907.063031 512.439688 
L 907.063031 497.755726 
" style="fill:none;stroke:#ff0000;"/>
    <path clip-path="url(#p8f39479aaa)" d="M 988.191 473.282455 
L 988.191 461.861596 
" style="fill:none;stroke:#ff0000;"/>
    <path clip-path="url(#p8f39479aaa)" d="M 1069.318969 434.125223 
L 1069.318969 417.809709 
" style="fill:none;stroke:#ff0000;"/>
    <path clip-path="url(#p8f39479aaa)" d="M 1150.446937 393.336439 
L 1150.446937 377.020926 
" style="fill:none;stroke:#ff0000;"/>
    <path clip-path="url(#p8f39479aaa)" d="M 1231.574906 345.205674 
L 1231.574906 327.258609 
" style="fill:none;stroke:#ff0000;"/>
    <path clip-path="url(#p8f39479aaa)" d="M 1312.702875 301.153788 
L 1312.702875 279.94362 
" style="fill:none;stroke:#ff0000;"/>
    <path clip-path="url(#p8f39479aaa)" d="M 1393.830844 237.523285 
L 1393.830844 211.418463 
" style="fill:none;stroke:#ff0000;"/>
   </g>
   <g id="line2d_1">
    <defs>
     <path d="M 3 0 
L -3 -0 
" id="mea8f2659e2" style="stroke:#ff0000;stroke-width:0.5;"/>
    </defs>
    <g clip-path="url(#p8f39479aaa)">
     <use style="fill:#ff0000;stroke:#ff0000;stroke-width:0.5;" x="258.03928125" xlink:href="#mea8f2659e2" y="726.9886903"/>
     <use style="fill:#ff0000;stroke:#ff0000;stroke-width:0.5;" x="339.16725" xlink:href="#mea8f2659e2" y="696.804990311"/>
     <use style="fill:#ff0000;stroke:#ff0000;stroke-width:0.5;" x="420.29521875" xlink:href="#mea8f2659e2" y="681.305252479"/>
     <use style="fill:#ff0000;stroke:#ff0000;stroke-width:0.5;" x="501.4231875" xlink:href="#mea8f2659e2" y="654.384655192"/>
     <use style="fill:#ff0000;stroke:#ff0000;stroke-width:0.5;" x="582.55115625" xlink:href="#mea8f2659e2" y="629.095609256"/>
     <use style="fill:#ff0000;stroke:#ff0000;stroke-width:0.5;" x="663.679125" xlink:href="#mea8f2659e2" y="602.990787644"/>
     <use style="fill:#ff0000;stroke:#ff0000;stroke-width:0.5;" x="744.80709375" xlink:href="#mea8f2659e2" y="573.622863331"/>
     <use style="fill:#ff0000;stroke:#ff0000;stroke-width:0.5;" x="825.9350625" xlink:href="#mea8f2659e2" y="544.254939017"/>
     <use style="fill:#ff0000;stroke:#ff0000;stroke-width:0.5;" x="907.06303125" xlink:href="#mea8f2659e2" y="512.439687678"/>
     <use style="fill:#ff0000;stroke:#ff0000;stroke-width:0.5;" x="988.191" xlink:href="#mea8f2659e2" y="473.28245526"/>
     <use style="fill:#ff0000;stroke:#ff0000;stroke-width:0.5;" x="1069.31896875" xlink:href="#mea8f2659e2" y="434.125222843"/>
     <use style="fill:#ff0000;stroke:#ff0000;stroke-width:0.5;" x="1150.4469375" xlink:href="#mea8f2659e2" y="393.336439074"/>
     <use style="fill:#ff0000;stroke:#ff0000;stroke-width:0.5;" x="1231.57490625" xlink:href="#mea8f2659e2" y="345.205674228"/>
     <use style="fill:#ff0000;stroke:#ff0000;stroke-width:0.5;" x="1312.702875" xlink:href="#mea8f2659e2" y="301.153787758"/>
     <use style="fill:#ff0000;stroke:#ff0000;stroke-width:0.5;" x="1393.83084375" xlink:href="#mea8f2659e2" y="237.523285079"/>
    </g>
   </g>
   <g id="line2d_2">
    <g clip-path="url(#p8f39479aaa)">
     <use style="fill:#ff0000;stroke:#ff0000;stroke-width:0.5;" x="258.03928125" xlink:href="#mea8f2659e2" y="712.304728143"/>
     <use style="fill:#ff0000;stroke:#ff0000;stroke-width:0.5;" x="339.16725" xlink:href="#mea8f2659e2" y="680.489476804"/>
     <use style="fill:#ff0000;stroke:#ff0000;stroke-width:0.5;" x="420.29521875" xlink:href="#mea8f2659e2" y="664.989738972"/>
     <use style="fill:#ff0000;stroke:#ff0000;stroke-width:0.5;" x="501.4231875" xlink:href="#mea8f2659e2" y="646.226898438"/>
     <use style="fill:#ff0000;stroke:#ff0000;stroke-width:0.5;" x="582.55115625" xlink:href="#mea8f2659e2" y="619.306301151"/>
     <use style="fill:#ff0000;stroke:#ff0000;stroke-width:0.5;" x="663.679125" xlink:href="#mea8f2659e2" y="591.569928189"/>
     <use style="fill:#ff0000;stroke:#ff0000;stroke-width:0.5;" x="744.80709375" xlink:href="#mea8f2659e2" y="562.202003876"/>
     <use style="fill:#ff0000;stroke:#ff0000;stroke-width:0.5;" x="825.9350625" xlink:href="#mea8f2659e2" y="531.202528212"/>
     <use style="fill:#ff0000;stroke:#ff0000;stroke-width:0.5;" x="907.06303125" xlink:href="#mea8f2659e2" y="497.755725521"/>
     <use style="fill:#ff0000;stroke:#ff0000;stroke-width:0.5;" x="988.191" xlink:href="#mea8f2659e2" y="461.861595805"/>
     <use style="fill:#ff0000;stroke:#ff0000;stroke-width:0.5;" x="1069.31896875" xlink:href="#mea8f2659e2" y="417.809709335"/>
     <use style="fill:#ff0000;stroke:#ff0000;stroke-width:0.5;" x="1150.4469375" xlink:href="#mea8f2659e2" y="377.020925567"/>
     <use style="fill:#ff0000;stroke:#ff0000;stroke-width:0.5;" x="1231.57490625" xlink:href="#mea8f2659e2" y="327.25860937"/>
     <use style="fill:#ff0000;stroke:#ff0000;stroke-width:0.5;" x="1312.702875" xlink:href="#mea8f2659e2" y="279.943620198"/>
     <use style="fill:#ff0000;stroke:#ff0000;stroke-width:0.5;" x="1393.83084375" xlink:href="#mea8f2659e2" y="211.418463467"/>
    </g>
   </g>
   <g id="line2d_3">
    <defs>
     <path d="M 0 3 
C 0.795609 3 1.55874 2.683901 2.12132 2.12132 
C 2.683901 1.55874 3 0.795609 3 0 
C 3 -0.795609 2.683901 -1.55874 2.12132 -2.12132 
C 1.55874 -2.683901 0.795609 -3 0 -3 
C -0.795609 -3 -1.55874 -2.683901 -2.12132 -2.12132 
C -2.683901 -1.55874 -3 -0.795609 -3 0 
C -3 0.795609 -2.683901 1.55874 -2.12132 2.12132 
C -1.55874 2.683901 -0.795609 3 0 3 
z
" id="m964d80a887" style="stroke:#000000;stroke-width:0.5;"/>
    </defs>
    <g clip-path="url(#p8f39479aaa)">
     <use style="fill:#ff0000;stroke:#000000;stroke-width:0.5;" x="258.03928125" xlink:href="#m964d80a887" y="719.646709221"/>
     <use style="fill:#ff0000;stroke:#000000;stroke-width:0.5;" x="339.16725" xlink:href="#m964d80a887" y="688.647233558"/>
     <use style="fill:#ff0000;stroke:#000000;stroke-width:0.5;" x="420.29521875" xlink:href="#m964d80a887" y="673.147495726"/>
     <use style="fill:#ff0000;stroke:#000000;stroke-width:0.5;" x="501.4231875" xlink:href="#m964d80a887" y="650.305776815"/>
     <use style="fill:#ff0000;stroke:#000000;stroke-width:0.5;" x="582.55115625" xlink:href="#m964d80a887" y="624.200955203"/>
     <use style="fill:#ff0000;stroke:#000000;stroke-width:0.5;" x="663.679125" xlink:href="#m964d80a887" y="597.280357916"/>
     <use style="fill:#ff0000;stroke:#000000;stroke-width:0.5;" x="744.80709375" xlink:href="#m964d80a887" y="567.912433603"/>
     <use style="fill:#ff0000;stroke:#000000;stroke-width:0.5;" x="825.9350625" xlink:href="#m964d80a887" y="537.728733614"/>
     <use style="fill:#ff0000;stroke:#000000;stroke-width:0.5;" x="907.06303125" xlink:href="#m964d80a887" y="505.0977066"/>
     <use style="fill:#ff0000;stroke:#000000;stroke-width:0.5;" x="988.191" xlink:href="#m964d80a887" y="467.572025533"/>
     <use style="fill:#ff0000;stroke:#000000;stroke-width:0.5;" x="1069.31896875" xlink:href="#m964d80a887" y="425.967466089"/>
     <use style="fill:#ff0000;stroke:#000000;stroke-width:0.5;" x="1150.4469375" xlink:href="#m964d80a887" y="385.178682321"/>
     <use style="fill:#ff0000;stroke:#000000;stroke-width:0.5;" x="1231.57490625" xlink:href="#m964d80a887" y="336.232141799"/>
     <use style="fill:#ff0000;stroke:#000000;stroke-width:0.5;" x="1312.702875" xlink:href="#m964d80a887" y="290.548703978"/>
     <use style="fill:#ff0000;stroke:#000000;stroke-width:0.5;" x="1393.83084375" xlink:href="#m964d80a887" y="224.470874273"/>
    </g>
   </g>
   <g id="patch_3">
    <path d="M 209.3625 805.14 
L 209.3625 89.46 
" style="fill:none;stroke:#000000;stroke-linecap:square;stroke-linejoin:miter;"/>
   </g>
   <g id="patch_4">
    <path d="M 1507.41 805.14 
L 1507.41 89.46 
" style="fill:none;stroke:#000000;stroke-linecap:square;stroke-linejoin:miter;"/>
   </g>
   <g id="patch_5">
    <path d="M 209.3625 805.14 
L 1507.41 805.14 
" style="fill:none;stroke:#000000;stroke-linecap:square;stroke-linejoin:miter;"/>
   </g>
   <g id="patch_6">
    <path d="M 209.3625 89.46 
L 1507.41 89.46 
" style="fill:none;stroke:#000000;stroke-linecap:square;stroke-linejoin:miter;"/>
   </g>
   <g id="matplotlib.axis_1">
    <g id="xtick_1">
     <g id="line2d_4">
      <path clip-path="url(#p8f39479aaa)" d="M 209.3625 805.14 
L 209.3625 89.46 
" style="fill:none;stroke:#000000;stroke-dasharray:1.000000,3.000000;stroke-dashoffset:0.0;stroke-width:0.5;"/>
     </g>
     <g id="line2d_5">
      <defs>
       <path d="M 0 0 
L 0 -4 
" id="m0d3bade2ef" style="stroke:#000000;stroke-width:0.5;"/>
      </defs>
      <g>
       <use style="stroke:#000000;stroke-width:0.5;" x="209.3625" xlink:href="#m0d3bade2ef" y="805.14"/>
      </g>
     </g>
     <g id="line2d_6">
      <defs>
       <path d="M 0 0 
L 0 4 
" id="m5f89a35df4" style="stroke:#000000;stroke-width:0.5;"/>
      </defs>
      <g>
       <use style="stroke:#000000;stroke-width:0.5;" x="209.3625" xlink:href="#m5f89a35df4" y="89.46"/>
      </g>
     </g>
     <g id="text_1">
      <!-- $280$ -->
      <defs>
       <path d="M 16.796875 34.546875 
C 12.703125 32.65625 11 31.546875 8.796875 29.4375 
C 5 25.640625 3 21.125 3 15.921875 
C 3 5.609375 11.296875 -2 22.59375 -2 
C 35.59375 -2 46.40625 8.21875 46.40625 20.625 
C 46.40625 28.640625 42.703125 32.953125 31.296875 38.15625 
C 40.40625 44.375 43.59375 48.578125 43.59375 54.578125 
C 43.59375 63.1875 36.5 69 25.90625 69 
C 14 69 5.296875 61.390625 5.296875 50.890625 
C 5.296875 44.078125 8 40.265625 16.796875 34.546875 
M 28.40625 29.546875 
C 34.703125 26.734375 38.5 21.828125 38.5 16.4375 
C 38.5 8.015625 32.203125 1.40625 24.09375 1.40625 
C 15.59375 1.40625 10.09375 7.421875 10.09375 16.734375 
C 10.09375 24.03125 13 28.640625 20.40625 33.15625 
z
M 22.296875 42.375 
C 16 45.46875 12.796875 49.484375 12.796875 54.484375 
C 12.796875 61.09375 17.59375 65.59375 24.703125 65.59375 
C 32 65.59375 36.796875 60.796875 36.796875 53.46875 
C 36.796875 47.78125 34.296875 43.875 27.796875 39.65625 
z
" id="URW_Palladio_L_Roman-56"/>
       <path d="M 1.59375 2.5 
L 1.59375 0 
C 20.296875 0 20.296875 0 23.90625 0 
C 27.5 0 27.5 0 46.796875 0 
C 46.59375 1.953125 46.59375 2.90625 46.59375 4.203125 
C 46.59375 5.4375 46.59375 6.359375 46.796875 8.421875 
C 35.296875 8.421875 30.703125 8.421875 12.203125 8.421875 
L 30.40625 27.515625 
C 40.09375 37.71875 43.09375 43.171875 43.09375 50.59375 
C 43.09375 61.96875 35.296875 69 22.59375 69 
C 15.40625 69 10.5 67 5.59375 62.015625 
L 3.90625 48.421875 
L 6.796875 48.421875 
L 8.09375 53.015625 
C 9.703125 58.796875 13.296875 61.296875 20 61.296875 
C 28.59375 61.296875 34.09375 55.890625 34.09375 47.421875 
C 34.09375 39.921875 29.90625 32.546875 18.59375 20.5625 
z
" id="URW_Palladio_L_Roman-50"/>
       <path d="M 26.296875 69 
C 10.796875 69 2.90625 56.6875 2.90625 32.453125 
C 2.90625 20.71875 5 10.625 8.5 5.71875 
C 12 0.796875 17.59375 -2 23.796875 -2 
C 38.90625 -2 46.5 11.015625 46.5 36.65625 
C 46.5 58.578125 40 69 26.296875 69 
M 24.5 65.5 
C 34.203125 65.5 38.09375 55.6875 38.09375 31.640625 
C 38.09375 10.328125 34.296875 1.5 25.09375 1.5 
C 15.40625 1.5 11.296875 11.625 11.296875 36.0625 
C 11.296875 57.1875 15 65.5 24.5 65.5 
" id="URW_Palladio_L_Roman-48"/>
      </defs>
      <g transform="translate(188.440955791 829.09905856)scale(0.28 -0.28)">
       <use transform="scale(0.9962640099626402)" xlink:href="#URW_Palladio_L_Roman-50"/>
       <use transform="translate(49.81320049813201 0.0)scale(0.9962640099626402)" xlink:href="#URW_Palladio_L_Roman-56"/>
       <use transform="translate(99.62640099626402 0.0)scale(0.9962640099626402)" xlink:href="#URW_Palladio_L_Roman-48"/>
      </g>
     </g>
    </g>
    <g id="xtick_2">
     <g id="line2d_7">
      <path clip-path="url(#p8f39479aaa)" d="M 371.618438 805.14 
L 371.618438 89.46 
" style="fill:none;stroke:#000000;stroke-dasharray:1.000000,3.000000;stroke-dashoffset:0.0;stroke-width:0.5;"/>
     </g>
     <g id="line2d_8">
      <g>
       <use style="stroke:#000000;stroke-width:0.5;" x="371.6184375" xlink:href="#m0d3bade2ef" y="805.14"/>
      </g>
     </g>
     <g id="line2d_9">
      <g>
       <use style="stroke:#000000;stroke-width:0.5;" x="371.6184375" xlink:href="#m5f89a35df4" y="89.46"/>
      </g>
     </g>
     <g id="text_2">
      <!-- $290$ -->
      <defs>
       <path d="M 9.59375 -1.65625 
C 20.703125 1.953125 25.5 4.25 30.90625 8.84375 
C 40.59375 17.15625 45.703125 28.671875 45.703125 42.078125 
C 45.703125 59 37.59375 69.296875 24.40625 69.296875 
C 11.59375 69.296875 2 59.296875 2 45.90625 
C 2 34.390625 9.5 26 19.90625 26 
C 23.296875 26 27.203125 27.09375 29 28.59375 
L 36 34.40625 
C 35.203125 17.578125 24.296875 5.25 6.203125 0.84375 
L 6.203125 0.046875 
z
M 24 66 
C 28.5 66 31.796875 64.09375 34 60.09375 
C 35.796875 56.890625 37 52 37 47.5 
C 37 38.296875 31.703125 32.109375 24 32.109375 
C 16 32.109375 10.59375 39.203125 10.59375 49.59375 
C 10.59375 59.703125 15.796875 66 24 66 
" id="URW_Palladio_L_Roman-57"/>
      </defs>
      <g transform="translate(350.696893291 829.09905856)scale(0.28 -0.28)">
       <use transform="scale(0.9962640099626402)" xlink:href="#URW_Palladio_L_Roman-50"/>
       <use transform="translate(49.81320049813201 0.0)scale(0.9962640099626402)" xlink:href="#URW_Palladio_L_Roman-57"/>
       <use transform="translate(99.62640099626402 0.0)scale(0.9962640099626402)" xlink:href="#URW_Palladio_L_Roman-48"/>
      </g>
     </g>
    </g>
    <g id="xtick_3">
     <g id="line2d_10">
      <path clip-path="url(#p8f39479aaa)" d="M 533.874375 805.14 
L 533.874375 89.46 
" style="fill:none;stroke:#000000;stroke-dasharray:1.000000,3.000000;stroke-dashoffset:0.0;stroke-width:0.5;"/>
     </g>
     <g id="line2d_11">
      <g>
       <use style="stroke:#000000;stroke-width:0.5;" x="533.874375" xlink:href="#m0d3bade2ef" y="805.14"/>
      </g>
     </g>
     <g id="line2d_12">
      <g>
       <use style="stroke:#000000;stroke-width:0.5;" x="533.874375" xlink:href="#m5f89a35df4" y="89.46"/>
      </g>
     </g>
     <g id="text_3">
      <!-- $300$ -->
      <defs>
       <path d="M 4.296875 49.953125 
L 7.40625 49.953125 
L 9.203125 55.53125 
C 10.296875 58.90625 16.59375 62.296875 21.796875 62.296875 
C 28.296875 62.296875 33.59375 57.015625 33.59375 50.75 
C 33.59375 43.28125 27.703125 37 20.59375 37 
C 19.796875 37 18.703125 37 17.40625 37.203125 
L 15.90625 37.203125 
L 14.703125 31.984375 
L 15.40625 31.375 
C 19.203125 33.09375 21.09375 33.59375 23.796875 33.59375 
C 32.09375 33.59375 36.90625 28.265625 36.90625 19.09375 
C 36.90625 8.84375 30.796875 2.109375 21.5 2.109375 
C 16.90625 2.109375 12.796875 3.609375 9.796875 6.421875 
C 7.40625 8.640625 6.09375 10.953125 4.203125 16.390625 
L 1.5 15.390625 
C 3.59375 9.265625 4.40625 5.640625 5 0.609375 
C 10.296875 -1.203125 14.703125 -2 18.40625 -2 
C 26.40625 -2 35.59375 2.515625 41.09375 9.265625 
C 44.5 13.390625 46.203125 17.8125 46.203125 22.53125 
C 46.203125 27.359375 44.203125 31.59375 40.59375 34.09375 
C 38.09375 35.90625 35.796875 36.71875 30.796875 37.609375 
C 38.796875 43.796875 41.796875 48.375 41.796875 54.25 
C 41.796875 63.125 34.40625 69 23.296875 69 
C 16.5 69 12 67.109375 7.203125 62.328125 
z
" id="URW_Palladio_L_Roman-51"/>
      </defs>
      <g transform="translate(512.952830791 829.09905856)scale(0.28 -0.28)">
       <use transform="scale(0.9962640099626402)" xlink:href="#URW_Palladio_L_Roman-51"/>
       <use transform="translate(49.81320049813201 0.0)scale(0.9962640099626402)" xlink:href="#URW_Palladio_L_Roman-48"/>
       <use transform="translate(99.62640099626402 0.0)scale(0.9962640099626402)" xlink:href="#URW_Palladio_L_Roman-48"/>
      </g>
     </g>
    </g>
    <g id="xtick_4">
     <g id="line2d_13">
      <path clip-path="url(#p8f39479aaa)" d="M 696.130313 805.14 
L 696.130313 89.46 
" style="fill:none;stroke:#000000;stroke-dasharray:1.000000,3.000000;stroke-dashoffset:0.0;stroke-width:0.5;"/>
     </g>
     <g id="line2d_14">
      <g>
       <use style="stroke:#000000;stroke-width:0.5;" x="696.1303125" xlink:href="#m0d3bade2ef" y="805.14"/>
      </g>
     </g>
     <g id="line2d_15">
      <g>
       <use style="stroke:#000000;stroke-width:0.5;" x="696.1303125" xlink:href="#m5f89a35df4" y="89.46"/>
      </g>
     </g>
     <g id="text_4">
      <!-- $310$ -->
      <defs>
       <path d="M 6.703125 56 
L 7.703125 56 
L 20.59375 61.8125 
C 20.703125 61.90625 20.796875 61.90625 20.90625 61.90625 
C 21.5 61.90625 21.703125 61.015625 21.703125 58.609375 
L 21.703125 9.578125 
C 21.703125 4.3125 20.59375 3.203125 15.203125 3.203125 
L 9.59375 3.203125 
L 9.59375 0 
C 25 0 25 0 26.09375 0 
C 27.40625 0 29.59375 0 33 0 
C 34.203125 0 37.703125 0 41.796875 0 
L 41.796875 3.203125 
L 36.59375 3.203125 
C 31.09375 3.203125 30.09375 4.3125 30.09375 9.5625 
L 30.09375 69.421875 
L 28.703125 69.921875 
C 22.203125 66.515625 15.09375 63.515625 6 60.3125 
z
" id="URW_Palladio_L_Roman-49"/>
      </defs>
      <g transform="translate(675.208768291 829.09905856)scale(0.28 -0.28)">
       <use transform="scale(0.9962640099626402)" xlink:href="#URW_Palladio_L_Roman-51"/>
       <use transform="translate(49.81320049813201 0.0)scale(0.9962640099626402)" xlink:href="#URW_Palladio_L_Roman-49"/>
       <use transform="translate(99.62640099626402 0.0)scale(0.9962640099626402)" xlink:href="#URW_Palladio_L_Roman-48"/>
      </g>
     </g>
    </g>
    <g id="xtick_5">
     <g id="line2d_16">
      <path clip-path="url(#p8f39479aaa)" d="M 858.38625 805.14 
L 858.38625 89.46 
" style="fill:none;stroke:#000000;stroke-dasharray:1.000000,3.000000;stroke-dashoffset:0.0;stroke-width:0.5;"/>
     </g>
     <g id="line2d_17">
      <g>
       <use style="stroke:#000000;stroke-width:0.5;" x="858.38625" xlink:href="#m0d3bade2ef" y="805.14"/>
      </g>
     </g>
     <g id="line2d_18">
      <g>
       <use style="stroke:#000000;stroke-width:0.5;" x="858.38625" xlink:href="#m5f89a35df4" y="89.46"/>
      </g>
     </g>
     <g id="text_5">
      <!-- $320$ -->
      <g transform="translate(837.464705791 829.09905856)scale(0.28 -0.28)">
       <use transform="scale(0.9962640099626402)" xlink:href="#URW_Palladio_L_Roman-51"/>
       <use transform="translate(49.81320049813201 0.0)scale(0.9962640099626402)" xlink:href="#URW_Palladio_L_Roman-50"/>
       <use transform="translate(99.62640099626402 0.0)scale(0.9962640099626402)" xlink:href="#URW_Palladio_L_Roman-48"/>
      </g>
     </g>
    </g>
    <g id="xtick_6">
     <g id="line2d_19">
      <path clip-path="url(#p8f39479aaa)" d="M 1020.642188 805.14 
L 1020.642188 89.46 
" style="fill:none;stroke:#000000;stroke-dasharray:1.000000,3.000000;stroke-dashoffset:0.0;stroke-width:0.5;"/>
     </g>
     <g id="line2d_20">
      <g>
       <use style="stroke:#000000;stroke-width:0.5;" x="1020.6421875" xlink:href="#m0d3bade2ef" y="805.14"/>
      </g>
     </g>
     <g id="line2d_21">
      <g>
       <use style="stroke:#000000;stroke-width:0.5;" x="1020.6421875" xlink:href="#m5f89a35df4" y="89.46"/>
      </g>
     </g>
     <g id="text_6">
      <!-- $330$ -->
      <g transform="translate(999.720643291 829.09905856)scale(0.28 -0.28)">
       <use transform="scale(0.9962640099626402)" xlink:href="#URW_Palladio_L_Roman-51"/>
       <use transform="translate(49.81320049813201 0.0)scale(0.9962640099626402)" xlink:href="#URW_Palladio_L_Roman-51"/>
       <use transform="translate(99.62640099626402 0.0)scale(0.9962640099626402)" xlink:href="#URW_Palladio_L_Roman-48"/>
      </g>
     </g>
    </g>
    <g id="xtick_7">
     <g id="line2d_22">
      <path clip-path="url(#p8f39479aaa)" d="M 1182.898125 805.14 
L 1182.898125 89.46 
" style="fill:none;stroke:#000000;stroke-dasharray:1.000000,3.000000;stroke-dashoffset:0.0;stroke-width:0.5;"/>
     </g>
     <g id="line2d_23">
      <g>
       <use style="stroke:#000000;stroke-width:0.5;" x="1182.898125" xlink:href="#m0d3bade2ef" y="805.14"/>
      </g>
     </g>
     <g id="line2d_24">
      <g>
       <use style="stroke:#000000;stroke-width:0.5;" x="1182.898125" xlink:href="#m5f89a35df4" y="89.46"/>
      </g>
     </g>
     <g id="text_7">
      <!-- $340$ -->
      <defs>
       <path d="M 28 18 
L 28 10.515625 
C 28 4.515625 26.90625 3.109375 22 3.109375 
L 15.796875 3.109375 
L 15.796875 0 
C 29.09375 0 29.09375 0 31.5 0 
C 33.90625 0 33.90625 0 47.203125 0 
L 47.203125 3.109375 
L 42.40625 3.109375 
C 37.5 3.109375 36.40625 4.40625 36.40625 10.453125 
L 36.40625 18 
C 42.296875 18 44.40625 18 47.203125 17.703125 
L 47.203125 24.8125 
C 42.5 24.421875 40.59375 24.421875 39.09375 24.421875 
L 38.796875 24.421875 
L 36.40625 24.421875 
L 36.40625 38.390625 
C 36.40625 56.25 36.59375 64.875 37.09375 69 
L 35.90625 69.5 
L 28.5 66.796875 
L 0.203125 20.296875 
L 1.296875 18 
z
M 28 24.421875 
L 6.5 24.421875 
L 28 59.78125 
z
" id="URW_Palladio_L_Roman-52"/>
      </defs>
      <g transform="translate(1161.97658079 829.09905856)scale(0.28 -0.28)">
       <use transform="scale(0.9962640099626402)" xlink:href="#URW_Palladio_L_Roman-51"/>
       <use transform="translate(49.81320049813201 0.0)scale(0.9962640099626402)" xlink:href="#URW_Palladio_L_Roman-52"/>
       <use transform="translate(99.62640099626402 0.0)scale(0.9962640099626402)" xlink:href="#URW_Palladio_L_Roman-48"/>
      </g>
     </g>
    </g>
    <g id="xtick_8">
     <g id="line2d_25">
      <path clip-path="url(#p8f39479aaa)" d="M 1345.154062 805.14 
L 1345.154062 89.46 
" style="fill:none;stroke:#000000;stroke-dasharray:1.000000,3.000000;stroke-dashoffset:0.0;stroke-width:0.5;"/>
     </g>
     <g id="line2d_26">
      <g>
       <use style="stroke:#000000;stroke-width:0.5;" x="1345.1540625" xlink:href="#m0d3bade2ef" y="805.14"/>
      </g>
     </g>
     <g id="line2d_27">
      <g>
       <use style="stroke:#000000;stroke-width:0.5;" x="1345.1540625" xlink:href="#m5f89a35df4" y="89.46"/>
      </g>
     </g>
     <g id="text_8">
      <!-- $350$ -->
      <defs>
       <path d="M 12.703125 60.578125 
C 25.59375 60.578125 31.203125 60.578125 43.203125 60.578125 
L 43.703125 61.046875 
C 43.5 62.75 43.5 63.5 43.5 64.75 
C 43.5 66.078125 43.5 66.828125 43.703125 68.53125 
L 43.203125 69 
C 35.703125 69 31.203125 69 25.796875 69 
C 20.296875 69 15.90625 69 8.40625 69 
L 7.90625 68.796875 
C 8 62.671875 8.09375 58.265625 8.09375 55.046875 
C 8.09375 46.515625 7.796875 36.875 7.5 32.453125 
L 9.5 31.84375 
C 14.203125 36.578125 16.90625 38 21.796875 38 
C 31.40625 38 37.40625 31.140625 37.40625 20.25 
C 37.40625 9.0625 31 2.5 20.09375 2.5 
C 14.703125 2.5 9.703125 4.328125 8.296875 6.9375 
L 3.703125 15.203125 
L 1.296875 13.796875 
C 3.59375 8.0625 4.796875 4.84375 6.203125 0.421875 
C 9 -1.109375 13 -2 17.296875 -2 
C 24 -2 31.09375 0.921875 36.59375 5.75 
C 42.703125 11.1875 45.90625 18.03125 45.90625 25.46875 
C 45.90625 36.859375 37.796875 44.90625 26.40625 44.90625 
C 21.59375 44.90625 18 43.609375 11.796875 39.90625 
z
" id="URW_Palladio_L_Roman-53"/>
      </defs>
      <g transform="translate(1324.23251829 829.09905856)scale(0.28 -0.28)">
       <use transform="scale(0.9962640099626402)" xlink:href="#URW_Palladio_L_Roman-51"/>
       <use transform="translate(49.81320049813201 0.0)scale(0.9962640099626402)" xlink:href="#URW_Palladio_L_Roman-53"/>
       <use transform="translate(99.62640099626402 0.0)scale(0.9962640099626402)" xlink:href="#URW_Palladio_L_Roman-48"/>
      </g>
     </g>
    </g>
    <g id="xtick_9">
     <g id="line2d_28">
      <path clip-path="url(#p8f39479aaa)" d="M 1507.41 805.14 
L 1507.41 89.46 
" style="fill:none;stroke:#000000;stroke-dasharray:1.000000,3.000000;stroke-dashoffset:0.0;stroke-width:0.5;"/>
     </g>
     <g id="line2d_29">
      <g>
       <use style="stroke:#000000;stroke-width:0.5;" x="1507.41" xlink:href="#m0d3bade2ef" y="805.14"/>
      </g>
     </g>
     <g id="line2d_30">
      <g>
       <use style="stroke:#000000;stroke-width:0.5;" x="1507.41" xlink:href="#m5f89a35df4" y="89.46"/>
      </g>
     </g>
     <g id="text_9">
      <!-- $360$ -->
      <defs>
       <path d="M 41.59375 67.34375 
L 37.90625 69.046875 
C 28.296875 65.84375 24.203125 63.84375 19.09375 59.4375 
C 8.796875 50.71875 3.203125 38.5 3.203125 24.765625 
C 3.203125 8.21875 11.203125 -2 24.09375 -2 
C 37.09375 -2 46.796875 8.3125 46.796875 21.953125 
C 46.796875 33.484375 39.90625 41 29.296875 41 
C 24.296875 41 21.296875 39.6875 15.40625 34.984375 
C 14.296875 34.078125 14.203125 33.984375 13.09375 33.1875 
C 15.203125 51.3125 23.59375 61.140625 41.59375 66.546875 
z
M 25.5 34.984375 
C 33.09375 34.984375 38.203125 28.375 38.203125 18.453125 
C 38.203125 8.015625 33.09375 1.296875 25.40625 1.296875 
C 16.90625 1.296875 12.296875 8.609375 12.296875 22.0625 
C 12.296875 25.5625 12.703125 27.46875 13.796875 29.171875 
C 16 32.578125 20.703125 34.984375 25.5 34.984375 
" id="URW_Palladio_L_Roman-54"/>
      </defs>
      <g transform="translate(1486.48845579 829.09905856)scale(0.28 -0.28)">
       <use transform="scale(0.9962640099626402)" xlink:href="#URW_Palladio_L_Roman-51"/>
       <use transform="translate(49.81320049813201 0.0)scale(0.9962640099626402)" xlink:href="#URW_Palladio_L_Roman-54"/>
       <use transform="translate(99.62640099626402 0.0)scale(0.9962640099626402)" xlink:href="#URW_Palladio_L_Roman-48"/>
      </g>
     </g>
    </g>
    <g id="text_10">
     <!-- Temperatura [K] -->
     <defs>
      <path d="M 1.796875 40.078125 
L 5.5 40.078125 
C 9.5 40.078125 9.90625 39.375 9.90625 32.71875 
L 9.90625 10.046875 
C 9.90625 3.703125 9.59375 3 6.203125 3 
L 1.59375 3 
L 1.59375 -0.109375 
C 11.203125 -0.109375 11.5 -0.109375 14.296875 -0.109375 
C 17.09375 -0.109375 19.703125 -0.109375 26.203125 -0.109375 
L 26.203125 2.796875 
L 22 3.203125 
C 18.59375 3.203125 18.296875 3.90625 18.296875 10.21875 
L 18.296875 31.46875 
C 18.296875 35.96875 24.90625 40.875 30.90625 40.875 
C 36.296875 40.875 40 35.734375 40 28.09375 
L 40 10.046875 
C 40 3.703125 39.703125 3 36.296875 3 
L 31.703125 3 
L 31.703125 -0.109375 
C 41.703125 -0.109375 41.703125 -0.109375 44.203125 -0.109375 
C 46.703125 -0.109375 46.703125 -0.109375 56.703125 -0.109375 
L 56.703125 3 
L 52.09375 3 
C 48.703125 3 48.40625 3.703125 48.40625 10.046875 
L 48.40625 31.421875 
C 48.40625 35.9375 55 40.875 61 40.875 
C 66.40625 40.875 70.09375 35.796875 70.09375 28.21875 
L 70.09375 -0.109375 
C 76.203125 -0.109375 76.296875 -0.109375 78 -0.109375 
C 79.296875 -0.109375 79.296875 -0.109375 86.90625 -0.109375 
L 86.90625 3 
L 82.203125 3 
C 78.796875 3 78.5 3.703125 78.5 10.046875 
L 78.5 30.78125 
C 78.5 40.75 72.703125 47 63.5 47 
C 60 47 57.09375 46.09375 55.296875 44.484375 
L 47.703125 37.6875 
C 44.5 44.28125 40.40625 47 33.5 47 
C 29.796875 47 27 46.09375 25.203125 44.484375 
L 18.296875 38.078125 
L 18.296875 46.59375 
L 17.40625 47 
C 12.296875 44.890625 7.09375 43.484375 1.796875 42.890625 
z
" id="URW_Palladio_L_Roman-109"/>
      <path d="M 8.796875 -18 
C 15.90625 -18 16.09375 -18 18.5 -18 
C 20.90625 -18 21.40625 -18 28.203125 -18 
L 28.796875 -17.5 
L 28.796875 -14.890625 
L 28.40625 -14.390625 
L 24.59375 -14.390625 
C 21.90625 -14.390625 19.703125 -13.78125 18.5 -12.78125 
C 17.59375 -11.875 17.296875 -10.484375 17.296875 -7.171875 
C 17.296875 -7.078125 17.296875 -4.96875 17.203125 -1.953125 
L 17.203125 1.75 
L 17.203125 53.265625 
L 17.203125 56.96875 
C 17.296875 59.78125 17.296875 61.984375 17.296875 62.078125 
C 17.296875 65.390625 17.59375 66.890625 18.5 67.796875 
C 19.703125 68.796875 21.90625 69.390625 24.59375 69.390625 
L 28.40625 69.390625 
L 28.796875 69.890625 
L 28.796875 72.5 
L 28.203125 73 
C 21.203125 73 20.90625 73 18.5 73 
C 16.203125 73 15.703125 73 8.796875 73 
L 7.90625 71.796875 
C 8.5 69.296875 8.703125 65.984375 8.703125 58.28125 
C 8.703125 56.765625 8.703125 55.5625 8.796875 54.5625 
L 8.796875 53.265625 
L 8.796875 1.75 
L 8.796875 0.4375 
C 8.703125 -1.15625 8.703125 -1.265625 8.703125 -2.96875 
L 8.703125 -4.0625 
C 8.703125 -10.875 8.5 -13.6875 7.90625 -16.796875 
z
" id="URW_Palladio_L_Roman-91"/>
      <path d="M 21.59375 32.609375 
L 22.59375 33.3125 
L 57.40625 0 
C 64.40625 0 64.40625 0 65.40625 0 
C 66.703125 0 66.90625 0 71.90625 0 
L 71.90625 2.90625 
L 69.796875 3.109375 
C 68.296875 3.109375 66.703125 4.21875 63.59375 7.109375 
L 30.59375 38.296875 
L 57.203125 62.296875 
C 59.90625 64.703125 62.40625 66 65 66 
L 69.203125 66 
L 69.203125 69.015625 
C 62.90625 69.015625 62.90625 69.015625 61.203125 69.015625 
C 59.796875 69.015625 58.09375 69.015625 52.296875 69.015625 
L 52.296875 66.5 
C 52.296875 65.90625 51 64.21875 49.40625 62.609375 
L 21.59375 35.59375 
L 21.59375 57.203125 
C 21.59375 65.1875 22.09375 66 26.703125 66 
L 31.5 66 
L 31.5 69.015625 
C 24.203125 69.015625 22 69.015625 16.796875 69.015625 
C 11.796875 69.015625 9.40625 69.015625 2.203125 69.015625 
L 2.203125 66 
L 7 66 
C 11.59375 66 12.09375 65.1875 12.09375 57.21875 
L 12.09375 11.890625 
C 12.09375 3.90625 11.59375 3.109375 7 3.109375 
L 2.203125 3.109375 
L 2.203125 0 
C 8.09375 0 11.59375 0 16.796875 0 
C 22 0 25.59375 0 31.5 0 
L 31.5 3.109375 
L 26.703125 3.109375 
C 22.09375 3.109375 21.59375 3.90625 21.59375 11.90625 
z
" id="URW_Palladio_L_Roman-75"/>
      <path d="M 50.296875 47.015625 
L 49.40625 47.421875 
C 44.296875 45.3125 39.09375 43.90625 33.796875 43.3125 
L 33.796875 40.5 
L 37.5 40.5 
C 41.5 40.5 41.90625 39.796875 41.90625 33.140625 
L 41.90625 16.71875 
C 41.90625 14.5 40.5 11.671875 38.203125 9.359375 
C 35.40625 6.53125 32.203125 5.109375 28.296875 5.109375 
C 24.796875 5.109375 22 6.21875 20.40625 8.140625 
C 19 9.75 18.296875 12.875 18.296875 17.296875 
L 18.296875 47.015625 
L 17.40625 47.421875 
C 12.296875 45.3125 7.09375 43.90625 1.796875 43.3125 
L 1.796875 40.5 
L 5.5 40.5 
C 9.5 40.5 9.90625 39.796875 9.90625 33.15625 
L 9.90625 16.234375 
C 9.90625 9.171875 10.5 6.046875 12.296875 3.546875 
C 14.5 0.515625 18.296875 -1 24 -1 
C 28.5 -1 32.5 0.40625 35.203125 2.90625 
L 41.90625 9.140625 
C 41.90625 6.265625 41.796875 4.65625 41.5 0 
C 48.203125 0 48.296875 0 49.796875 0 
C 51.203125 0 51.203125 0 58.09375 0 
L 58.09375 2.90625 
L 54 3.3125 
C 50.59375 3.3125 50.296875 3.921875 50.296875 10.375 
z
" id="URW_Palladio_L_Roman-117"/>
      <path d="M 1 40.078125 
L 4.703125 40.078125 
C 8.703125 40.078125 9.09375 39.375 9.09375 32.734375 
L 9.09375 -17.84375 
C 9.09375 -24.1875 8.796875 -24.890625 5.40625 -24.890625 
L 0.796875 -24.890625 
L 0.796875 -28 
C 10.796875 -28 10.796875 -28 13.296875 -28 
C 15.796875 -28 15.796875 -28 25.796875 -28 
L 25.796875 -24.890625 
L 21.203125 -24.890625 
C 17.796875 -24.890625 17.5 -24.171875 17.5 -17.78125 
L 17.5 1.390625 
C 20.5 -0.40625 23.703125 -1.109375 28.203125 -1.109375 
C 31.09375 -1.109375 33.703125 -0.5 35.296875 0.5 
L 46.703125 7.890625 
C 50.703125 10.5 55.40625 20.78125 55.40625 27.1875 
C 55.40625 38.296875 46.203125 47 34.59375 47 
C 30.90625 47 27.296875 45.984375 25.703125 44.484375 
L 17.5 36.984375 
L 17.5 46.59375 
L 16.59375 47 
C 11.5 44.890625 6.296875 43.484375 1 42.890625 
z
M 17.5 30.6875 
C 17.5 32.078125 18 33.1875 19.296875 34.890625 
C 22.203125 38.578125 26.296875 40.484375 31.296875 40.484375 
C 40.703125 40.484375 46.703125 33.890625 46.703125 23.5 
C 46.703125 12.296875 40 4 31 4 
C 25.5 4 21.40625 5.8125 17.5 9.890625 
z
" id="URW_Palladio_L_Roman-112"/>
      <path d="M 25.5 64.28125 
C 25.796875 60.875 25.90625 58.578125 25.90625 54.265625 
L 25.90625 11.921875 
C 25.90625 4 25.40625 3.203125 20.796875 3.203125 
L 16 3.203125 
L 16 0 
C 21.90625 0 25.40625 0 30.59375 0 
C 35.796875 0 39.40625 0 45.296875 0 
L 45.296875 3.203125 
L 40.5 3.203125 
C 35.90625 3.203125 35.40625 4 35.40625 11.921875 
L 35.40625 54.265625 
C 35.40625 58.78125 35.5 60.984375 35.796875 64.28125 
L 51.296875 64.28125 
C 54.09375 64.28125 55.203125 63.390625 55.296875 61 
L 55.703125 53.125 
L 58.796875 53.125 
C 58.796875 59.53125 59 63.375 59.5 69 
C 52.296875 69 49 69 46.203125 69 
C 42.296875 69 39.40625 69 37.90625 69 
L 22.09375 69 
C 21.09375 69 15.703125 69 8.59375 69 
L 1.796875 69 
C 2.296875 63.375 2.5 59.53125 2.5 53.125 
L 5.59375 53.125 
L 6 61 
C 6.09375 63.390625 7.203125 64.28125 10 64.28125 
z
" id="URW_Palladio_L_Roman-84"/>
      <path d="M 9.796875 38.6875 
L 9.796875 9.671875 
C 9.796875 2.21875 13.09375 -1 20.796875 -1 
C 23.09375 -1 25.5 -0.5 26.09375 0.203125 
L 30.90625 5.515625 
L 29.59375 7.234375 
C 27.09375 5.8125 25.59375 5.3125 23.703125 5.3125 
C 19.796875 5.3125 18.203125 7.34375 18.203125 12.3125 
L 18.203125 38.890625 
L 31 38.890625 
L 31.90625 44 
L 18.203125 44 
L 18.203125 47.75 
C 18.203125 51.890625 18.5 55.421875 19.296875 61.734375 
L 18.09375 62.828125 
C 15.703125 61.328125 12.703125 60.03125 9.59375 59.03125 
C 9.90625 56.015625 10 54.109375 10 51.109375 
L 10 44.09375 
L 2.203125 40.59375 
L 2.203125 38.6875 
z
" id="URW_Palladio_L_Roman-116"/>
      <path d="M 43.703125 6.984375 
L 42.40625 7.984375 
C 36 4.203125 33.703125 3.3125 29.40625 3.3125 
C 22.90625 3.3125 17.5 6.21875 14.703125 11.109375 
C 12.796875 14.390625 12.09375 17.203125 11.90625 23 
L 26.5 23 
C 33.40625 23 37.703125 23 44.59375 24.125 
C 44.703125 25.53125 44.796875 26.453125 44.796875 27.671875 
C 44.796875 39.375 37.40625 47 26.203125 47 
C 22.5 47 18.203125 45.6875 14.09375 43.28125 
C 5.90625 38.578125 2.59375 32.359375 2.59375 21.9375 
C 2.59375 15.625 4.09375 10.21875 6.796875 6.40625 
C 10.796875 1.109375 17.5 -2 25 -2 
C 28.703125 -2 32.40625 -1.203125 36.5 0.578125 
C 39.203125 1.6875 41.296875 2.984375 41.703125 3.59375 
z
M 35.90625 26.40625 
C 30.703125 26.40625 28.296875 26.40625 24.703125 26.40625 
C 20.09375 26.40625 17.5 26.40625 12.09375 26.90625 
C 12.09375 31.671875 12.5 33.890625 13.796875 36.515625 
C 15.90625 40.96875 20.203125 43.6875 25 43.6875 
C 28.296875 43.6875 30.90625 42.359375 32.703125 39.59375 
C 34.90625 36.234375 35.59375 33.265625 35.90625 26.40625 
" id="URW_Palladio_L_Roman-101"/>
      <path d="M 24.5 73 
C 17.40625 73 17.09375 73 14.796875 73 
C 12.40625 73 11.90625 73 5.09375 73 
L 4.5 72.5 
L 4.5 69.890625 
L 4.90625 69.390625 
L 8.703125 69.390625 
C 11.40625 69.390625 13.5 68.796875 14.703125 67.796875 
C 15.703125 66.890625 16 65.484375 16 62.078125 
C 16 61.78125 16 59.78125 16.09375 56.96875 
L 16.09375 53.265625 
L 16.09375 1.75 
L 16.09375 -1.953125 
C 16 -4.859375 16 -6.671875 16 -6.96875 
C 16 -10.375 15.703125 -11.875 14.703125 -12.78125 
C 13.5 -13.78125 11.40625 -14.390625 8.703125 -14.390625 
L 4.90625 -14.390625 
L 4.5 -14.890625 
L 4.5 -17.5 
L 5.09375 -18 
C 12.09375 -18 12.296875 -18 14.796875 -18 
C 17.09375 -18 17.59375 -18 24.5 -18 
L 25.40625 -16.796875 
C 24.796875 -14.390625 24.703125 -11.28125 24.59375 -3.5625 
C 24.59375 -2.15625 24.59375 -0.859375 24.5 0.4375 
L 24.5 1.75 
L 24.5 53.265625 
L 24.5 54.5625 
C 24.59375 55.671875 24.59375 56.96875 24.59375 58.375 
C 24.59375 66.09375 24.796875 69.390625 25.40625 71.796875 
z
" id="URW_Palladio_L_Roman-93"/>
      <path d="M 2.296875 40.078125 
L 6 40.078125 
C 10 40.078125 10.40625 39.375 10.40625 32.71875 
L 10.40625 10.046875 
C 10.40625 3.703125 10.09375 3 6.703125 3 
L 2.09375 3 
L 2.09375 -0.109375 
C 9.296875 -0.109375 11.90625 -0.109375 14.40625 -0.109375 
C 16.40625 -0.109375 16.40625 -0.109375 28.703125 -0.109375 
L 28.703125 3 
L 23.5 3 
C 19 3 18.796875 3.296875 18.796875 9.96875 
L 18.796875 27.359375 
C 18.796875 33.421875 22.796875 38.484375 27.703125 38.484375 
C 30.703125 38.484375 32.796875 37.078125 34.40625 33.890625 
L 36.5 33.890625 
L 37.40625 45.890625 
C 36.296875 46.59375 34.5 47 32.703125 47 
C 29.703125 47 26.5 45.390625 24.40625 42.890625 
L 18.796875 36.28125 
L 18.796875 46.59375 
L 17.90625 47 
C 12.796875 44.890625 7.59375 43.484375 2.296875 42.890625 
z
" id="URW_Palladio_L_Roman-114"/>
      <path d="M 32.40625 8.40625 
L 31.90625 -0.015625 
C 38.40625 -0.015625 38.40625 -0.015625 39.703125 -0.015625 
C 40.203125 -0.015625 42.703125 -0.015625 47.09375 -0.015625 
L 47.09375 3 
L 43.203125 3 
C 40.796875 3 40.40625 3.8125 40.40625 8.71875 
L 40.40625 27.046875 
C 40.40625 41.6875 36.203125 47 24.59375 47 
C 20.296875 47 16.296875 45.890625 12.5 43.609375 
L 7.203125 40.390625 
L 7.203125 33.921875 
L 9.796875 33.21875 
L 11.09375 36.296875 
C 13.203125 40.984375 14.203125 41.6875 18.796875 41.6875 
C 28.203125 41.6875 32.09375 37.984375 32.40625 28.9375 
L 22.5 27.125 
C 8.90625 24.640625 3.203125 19.953125 3.203125 11.28125 
C 3.203125 3.5 7.90625 -1 15.796875 -1 
C 17.59375 -1 19.296875 -0.703125 20 -0.203125 
z
M 32.40625 12.59375 
C 29.5 8.5 23.203125 4.71875 19.296875 4.71875 
C 15.296875 4.71875 11.796875 8.40625 11.796875 12.6875 
C 11.796875 16.375 13.796875 19.859375 16.796875 21.75 
C 19.296875 23.25 24.796875 24.640625 32.40625 25.75 
z
" id="URW_Palladio_L_Roman-97"/>
     </defs>
     <g transform="translate(756.234513713 861.924461833)scale(0.28 -0.28)">
      <use transform="scale(0.9962640099626402)" xlink:href="#URW_Palladio_L_Roman-84"/>
      <use transform="translate(51.90495055164229 0.0)scale(0.9962640099626402)" xlink:href="#URW_Palladio_L_Roman-101"/>
      <use transform="translate(99.62524566080324 0.0)scale(0.9962640099626402)" xlink:href="#URW_Palladio_L_Roman-109"/>
      <use transform="translate(187.59491992917188 0.0)scale(0.9962640099626402)" xlink:href="#URW_Palladio_L_Roman-112"/>
      <use transform="translate(247.46931368209061 0.0)scale(0.9962640099626402)" xlink:href="#URW_Palladio_L_Roman-101"/>
      <use transform="translate(295.1896087912516 0.0)scale(0.9962640099626402)" xlink:href="#URW_Palladio_L_Roman-114"/>
      <use transform="translate(334.5415051223926 0.0)scale(0.9962640099626402)" xlink:href="#URW_Palladio_L_Roman-97"/>
      <use transform="translate(384.3547056205246 0.0)scale(0.9962640099626402)" xlink:href="#URW_Palladio_L_Roman-116"/>
      <use transform="translate(416.83179349412364 0.0)scale(0.9962640099626402)" xlink:href="#URW_Palladio_L_Roman-117"/>
      <use transform="translate(476.9055282193727 0.0)scale(0.9962640099626402)" xlink:href="#URW_Palladio_L_Roman-114"/>
      <use transform="translate(516.2574245505137 0.0)scale(0.9962640099626402)" xlink:href="#URW_Palladio_L_Roman-97"/>
      <use transform="translate(590.9772252977118 0.0)scale(0.9962640099626402)" xlink:href="#URW_Palladio_L_Roman-91"/>
      <use transform="translate(624.152455027047 0.0)scale(0.9962640099626402)" xlink:href="#URW_Palladio_L_Roman-75"/>
      <use transform="translate(696.4801489044988 0.0)scale(0.9962640099626402)" xlink:href="#URW_Palladio_L_Roman-93"/>
     </g>
    </g>
   </g>
   <g id="matplotlib.axis_2">
    <g id="ytick_1">
     <g id="line2d_31">
      <path clip-path="url(#p8f39479aaa)" d="M 209.3625 758.803942 
L 1507.41 758.803942 
" style="fill:none;stroke:#000000;stroke-dasharray:1.000000,3.000000;stroke-dashoffset:0.0;stroke-width:0.5;"/>
     </g>
     <g id="line2d_32">
      <defs>
       <path d="M 0 0 
L 4 0 
" id="m79761ad4fb" style="stroke:#000000;stroke-width:0.5;"/>
      </defs>
      <g>
       <use style="stroke:#000000;stroke-width:0.5;" x="209.3625" xlink:href="#m79761ad4fb" y="758.803941639"/>
      </g>
     </g>
     <g id="line2d_33">
      <defs>
       <path d="M 0 0 
L -4 0 
" id="m41c7b86b90" style="stroke:#000000;stroke-width:0.5;"/>
      </defs>
      <g>
       <use style="stroke:#000000;stroke-width:0.5;" x="1507.41" xlink:href="#m41c7b86b90" y="758.803941639"/>
      </g>
     </g>
     <g id="text_11">
      <!-- $10$ -->
      <g transform="translate(177.467107721 764.850298562)scale(0.28 -0.28)">
       <use transform="scale(0.9962640099626402)" xlink:href="#URW_Palladio_L_Roman-49"/>
       <use transform="translate(49.81320049813201 0.0)scale(0.9962640099626402)" xlink:href="#URW_Palladio_L_Roman-48"/>
      </g>
     </g>
    </g>
    <g id="ytick_2">
     <g id="line2d_34">
      <path clip-path="url(#p8f39479aaa)" d="M 209.3625 677.226374 
L 1507.41 677.226374 
" style="fill:none;stroke:#000000;stroke-dasharray:1.000000,3.000000;stroke-dashoffset:0.0;stroke-width:0.5;"/>
     </g>
     <g id="line2d_35">
      <g>
       <use style="stroke:#000000;stroke-width:0.5;" x="209.3625" xlink:href="#m79761ad4fb" y="677.226374102"/>
      </g>
     </g>
     <g id="line2d_36">
      <g>
       <use style="stroke:#000000;stroke-width:0.5;" x="1507.41" xlink:href="#m41c7b86b90" y="677.226374102"/>
      </g>
     </g>
     <g id="text_12">
      <!-- $11$ -->
      <g transform="translate(177.467107721 683.272731026)scale(0.28 -0.28)">
       <use transform="scale(0.9962640099626402)" xlink:href="#URW_Palladio_L_Roman-49"/>
       <use transform="translate(49.81320049813201 0.0)scale(0.9962640099626402)" xlink:href="#URW_Palladio_L_Roman-49"/>
      </g>
     </g>
    </g>
    <g id="ytick_3">
     <g id="line2d_37">
      <path clip-path="url(#p8f39479aaa)" d="M 209.3625 595.648807 
L 1507.41 595.648807 
" style="fill:none;stroke:#000000;stroke-dasharray:1.000000,3.000000;stroke-dashoffset:0.0;stroke-width:0.5;"/>
     </g>
     <g id="line2d_38">
      <g>
       <use style="stroke:#000000;stroke-width:0.5;" x="209.3625" xlink:href="#m79761ad4fb" y="595.648806566"/>
      </g>
     </g>
     <g id="line2d_39">
      <g>
       <use style="stroke:#000000;stroke-width:0.5;" x="1507.41" xlink:href="#m41c7b86b90" y="595.648806566"/>
      </g>
     </g>
     <g id="text_13">
      <!-- $12$ -->
      <g transform="translate(177.467107721 601.695163489)scale(0.28 -0.28)">
       <use transform="scale(0.9962640099626402)" xlink:href="#URW_Palladio_L_Roman-49"/>
       <use transform="translate(49.81320049813201 0.0)scale(0.9962640099626402)" xlink:href="#URW_Palladio_L_Roman-50"/>
      </g>
     </g>
    </g>
    <g id="ytick_4">
     <g id="line2d_40">
      <path clip-path="url(#p8f39479aaa)" d="M 209.3625 514.071239 
L 1507.41 514.071239 
" style="fill:none;stroke:#000000;stroke-dasharray:1.000000,3.000000;stroke-dashoffset:0.0;stroke-width:0.5;"/>
     </g>
     <g id="line2d_41">
      <g>
       <use style="stroke:#000000;stroke-width:0.5;" x="209.3625" xlink:href="#m79761ad4fb" y="514.071239029"/>
      </g>
     </g>
     <g id="line2d_42">
      <g>
       <use style="stroke:#000000;stroke-width:0.5;" x="1507.41" xlink:href="#m41c7b86b90" y="514.071239029"/>
      </g>
     </g>
     <g id="text_14">
      <!-- $13$ -->
      <g transform="translate(177.467107721 520.117595952)scale(0.28 -0.28)">
       <use transform="scale(0.9962640099626402)" xlink:href="#URW_Palladio_L_Roman-49"/>
       <use transform="translate(49.81320049813201 0.0)scale(0.9962640099626402)" xlink:href="#URW_Palladio_L_Roman-51"/>
      </g>
     </g>
    </g>
    <g id="ytick_5">
     <g id="line2d_43">
      <path clip-path="url(#p8f39479aaa)" d="M 209.3625 432.493671 
L 1507.41 432.493671 
" style="fill:none;stroke:#000000;stroke-dasharray:1.000000,3.000000;stroke-dashoffset:0.0;stroke-width:0.5;"/>
     </g>
     <g id="line2d_44">
      <g>
       <use style="stroke:#000000;stroke-width:0.5;" x="209.3625" xlink:href="#m79761ad4fb" y="432.493671492"/>
      </g>
     </g>
     <g id="line2d_45">
      <g>
       <use style="stroke:#000000;stroke-width:0.5;" x="1507.41" xlink:href="#m41c7b86b90" y="432.493671492"/>
      </g>
     </g>
     <g id="text_15">
      <!-- $14$ -->
      <g transform="translate(177.467107721 438.540028415)scale(0.28 -0.28)">
       <use transform="scale(0.9962640099626402)" xlink:href="#URW_Palladio_L_Roman-49"/>
       <use transform="translate(49.81320049813201 0.0)scale(0.9962640099626402)" xlink:href="#URW_Palladio_L_Roman-52"/>
      </g>
     </g>
    </g>
    <g id="ytick_6">
     <g id="line2d_46">
      <path clip-path="url(#p8f39479aaa)" d="M 209.3625 350.916104 
L 1507.41 350.916104 
" style="fill:none;stroke:#000000;stroke-dasharray:1.000000,3.000000;stroke-dashoffset:0.0;stroke-width:0.5;"/>
     </g>
     <g id="line2d_47">
      <g>
       <use style="stroke:#000000;stroke-width:0.5;" x="209.3625" xlink:href="#m79761ad4fb" y="350.916103955"/>
      </g>
     </g>
     <g id="line2d_48">
      <g>
       <use style="stroke:#000000;stroke-width:0.5;" x="1507.41" xlink:href="#m41c7b86b90" y="350.916103955"/>
      </g>
     </g>
     <g id="text_16">
      <!-- $15$ -->
      <g transform="translate(177.467107721 356.962460879)scale(0.28 -0.28)">
       <use transform="scale(0.9962640099626402)" xlink:href="#URW_Palladio_L_Roman-49"/>
       <use transform="translate(49.81320049813201 0.0)scale(0.9962640099626402)" xlink:href="#URW_Palladio_L_Roman-53"/>
      </g>
     </g>
    </g>
    <g id="ytick_7">
     <g id="line2d_49">
      <path clip-path="url(#p8f39479aaa)" d="M 209.3625 269.338536 
L 1507.41 269.338536 
" style="fill:none;stroke:#000000;stroke-dasharray:1.000000,3.000000;stroke-dashoffset:0.0;stroke-width:0.5;"/>
     </g>
     <g id="line2d_50">
      <g>
       <use style="stroke:#000000;stroke-width:0.5;" x="209.3625" xlink:href="#m79761ad4fb" y="269.338536419"/>
      </g>
     </g>
     <g id="line2d_51">
      <g>
       <use style="stroke:#000000;stroke-width:0.5;" x="1507.41" xlink:href="#m41c7b86b90" y="269.338536419"/>
      </g>
     </g>
     <g id="text_17">
      <!-- $16$ -->
      <g transform="translate(177.467107721 275.384893342)scale(0.28 -0.28)">
       <use transform="scale(0.9962640099626402)" xlink:href="#URW_Palladio_L_Roman-49"/>
       <use transform="translate(49.81320049813201 0.0)scale(0.9962640099626402)" xlink:href="#URW_Palladio_L_Roman-54"/>
      </g>
     </g>
    </g>
    <g id="ytick_8">
     <g id="line2d_52">
      <path clip-path="url(#p8f39479aaa)" d="M 209.3625 187.760969 
L 1507.41 187.760969 
" style="fill:none;stroke:#000000;stroke-dasharray:1.000000,3.000000;stroke-dashoffset:0.0;stroke-width:0.5;"/>
     </g>
     <g id="line2d_53">
      <g>
       <use style="stroke:#000000;stroke-width:0.5;" x="209.3625" xlink:href="#m79761ad4fb" y="187.760968882"/>
      </g>
     </g>
     <g id="line2d_54">
      <g>
       <use style="stroke:#000000;stroke-width:0.5;" x="1507.41" xlink:href="#m41c7b86b90" y="187.760968882"/>
      </g>
     </g>
     <g id="text_18">
      <!-- $17$ -->
      <defs>
       <path d="M 5.59375 0.5 
L 6.5 -0.796875 
C 10.40625 -0.5 10.40625 -0.5 11.09375 -0.5 
C 11.796875 -0.5 11.796875 -0.5 15.703125 -0.796875 
C 19.90625 10.140625 24.796875 20.578125 31.40625 32.609375 
L 49.703125 65.609375 
L 49.703125 68.3125 
C 38.90625 68.3125 35.40625 68.3125 27.296875 68.3125 
C 20 68.3125 15.09375 68.3125 5.40625 68.3125 
L 4.40625 68.109375 
C 4.703125 58.59375 4.703125 58.59375 4.703125 57.578125 
C 4.703125 56.46875 4.703125 56.46875 4.40625 47.359375 
L 7.40625 47.359375 
L 8.09375 52.96875 
C 8.90625 59.203125 9.59375 60 14.203125 60 
L 40.90625 60 
C 36.90625 51.765625 33.796875 45.953125 30 39.828125 
z
" id="URW_Palladio_L_Roman-55"/>
      </defs>
      <g transform="translate(177.467107721 193.807325805)scale(0.28 -0.28)">
       <use transform="scale(0.9962640099626402)" xlink:href="#URW_Palladio_L_Roman-49"/>
       <use transform="translate(49.81320049813201 0.0)scale(0.9962640099626402)" xlink:href="#URW_Palladio_L_Roman-55"/>
      </g>
     </g>
    </g>
    <g id="ytick_9">
     <g id="line2d_55">
      <path clip-path="url(#p8f39479aaa)" d="M 209.3625 106.183401 
L 1507.41 106.183401 
" style="fill:none;stroke:#000000;stroke-dasharray:1.000000,3.000000;stroke-dashoffset:0.0;stroke-width:0.5;"/>
     </g>
     <g id="line2d_56">
      <g>
       <use style="stroke:#000000;stroke-width:0.5;" x="209.3625" xlink:href="#m79761ad4fb" y="106.183401345"/>
      </g>
     </g>
     <g id="line2d_57">
      <g>
       <use style="stroke:#000000;stroke-width:0.5;" x="1507.41" xlink:href="#m41c7b86b90" y="106.183401345"/>
      </g>
     </g>
     <g id="text_19">
      <!-- $18$ -->
      <g transform="translate(177.467107721 112.229758268)scale(0.28 -0.28)">
       <use transform="scale(0.9962640099626402)" xlink:href="#URW_Palladio_L_Roman-49"/>
       <use transform="translate(49.81320049813201 0.0)scale(0.9962640099626402)" xlink:href="#URW_Palladio_L_Roman-56"/>
      </g>
     </g>
    </g>
    <g id="text_20">
     <!-- Prąd progowy [mA] -->
     <defs>
      <path d="M 41.203125 43.78125 
C 35.59375 46.1875 32.796875 47 29.296875 47 
C 26.59375 47 24.203125 46.390625 21.703125 45.109375 
L 12.90625 40.515625 
C 7.203125 37.515625 3.5 30.234375 3.5 21.75 
C 3.5 13.765625 6.203125 7.1875 11.09375 3.1875 
C 14.5 0.296875 19.203125 -1 25.703125 -1 
C 27.703125 -1 30 -0.59375 30.5 -0.203125 
L 41.59375 9.109375 
L 41.09375 -0.109375 
C 46 -0.109375 47.59375 -0.109375 48.796875 -0.109375 
C 49.59375 -0.109375 51 -0.109375 53.09375 -0.109375 
C 53.796875 -0.109375 55.796875 -0.109375 57.90625 -0.109375 
L 57.90625 3 
L 53.296875 3 
C 49.90625 3 49.59375 3.703125 49.59375 10.046875 
L 49.59375 71.984375 
L 48.703125 72.796875 
C 44.296875 71.09375 41 70.28125 33.09375 69.078125 
L 33.09375 66.28125 
L 38.703125 66.28125 
C 40.5 66.28125 41.203125 65.171875 41.203125 62.15625 
z
M 41.203125 22.25 
C 41.203125 15.765625 41 14.78125 39.703125 12.484375 
C 36.90625 7.796875 32 4.71875 27.296875 4.71875 
C 18.5 4.71875 12.203125 13.1875 12.203125 25.046875 
C 12.203125 35.90625 17.59375 42.28125 26.59375 42.28125 
C 30.40625 42.28125 34.40625 40.984375 37.90625 38.59375 
C 40 37.203125 41.203125 35.90625 41.203125 35.09375 
z
" id="URW_Palladio_L_Roman-100"/>
      <path d="M 21.59375 64.3125 
C 25.09375 65.09375 28 65.5 31.40625 65.5 
C 42.203125 65.5 48 60.546875 48 51.140625 
C 48 42.234375 41.90625 36 33.203125 36 
C 31.09375 36 29.59375 36.203125 27 36.984375 
L 28 33.390625 
C 30.40625 32.890625 31.796875 32.796875 33.796875 32.796875 
C 47.5 32.796875 58 42.0625 58 54.046875 
C 58 63.609375 50.203125 69.5 37.5 69.5 
C 37 69.5 36 69.5 34.703125 69.109375 
C 31 69.109375 23.40625 69.109375 20.5 69.109375 
C 18.296875 69.109375 18.296875 69.109375 2.296875 69.109375 
L 2.296875 66 
L 6.796875 66 
C 11.296875 66 12.09375 64.6875 12.09375 57.234375 
L 12.09375 11.96875 
C 12.09375 4 11.59375 3.203125 7 3.203125 
L 2.203125 3.203125 
L 2.203125 0 
C 8.09375 0 11.59375 0 16.796875 0 
C 22 0 25.59375 0 31.5 0 
L 31.5 3.203125 
L 26.703125 3.203125 
C 22.09375 3.203125 21.59375 4 21.59375 11.9375 
z
" id="URW_Palladio_L_Roman-80"/>
      <path d="M 40.796875 70.5 
L 37.59375 70.5 
C 35.796875 66.171875 34.296875 62.46875 33.703125 60.96875 
L 28.40625 48.8125 
L 10.59375 8.15625 
C 9.40625 5.234375 7.40625 3.421875 5.203125 3.21875 
L 1.5 2.921875 
L 1.5 0 
C 10.796875 0 10.796875 0 12.40625 0 
C 13.703125 0 13.703125 0 24.5 0 
L 24.5 2.921875 
L 20.796875 3.21875 
C 17.296875 3.53125 16 4.21875 16 5.796875 
C 16 7.09375 17.40625 11.359375 19.5 16.34375 
L 22.296875 23 
L 51.09375 23 
L 55.703125 11.453125 
C 57.40625 7.234375 57.796875 5.921875 57.796875 5.03125 
C 57.796875 3.921875 56.203125 3.21875 53.703125 3.015625 
L 49 3.015625 
L 49 0 
C 61.296875 0 61.296875 0 62.90625 0 
C 64.796875 0 64.796875 0 75.59375 0 
L 75.59375 2.921875 
L 72.203125 3.21875 
C 69.59375 3.625 68.5 5.328125 65 13.453125 
z
M 24 27 
L 36.703125 57.078125 
L 49.296875 27 
z
" id="URW_Palladio_L_Roman-65"/>
      <path d="M 22.90625 -7.28125 
C 20.203125 -9.6875 17.796875 -10.890625 15.5 -10.890625 
C 13.40625 -10.890625 11.5 -8.984375 11.5 -6.890625 
C 11.5 -4.796875 12.703125 -2.796875 15.5 -0.5 
L 11.796875 -0.5 
C 8.59375 -2.703125 6.796875 -5.5 6.796875 -8.59375 
C 6.796875 -12.1875 9.703125 -15 13.296875 -15 
C 16.796875 -15 19.90625 -13.390625 24.5 -9.390625 
z
" id="URW_Palladio_L_Roman-8"/>
      <path d="M 41.296875 47 
C 33.09375 27.9375 31.59375 24.546875 25.40625 10.578125 
L 17 38.1875 
C 16.703125 39.09375 16.59375 39.890625 16.59375 40.6875 
C 16.59375 42.1875 17.90625 43 20.40625 43 
L 24.40625 43 
L 24.40625 45.8125 
C 14.5 45.8125 14.5 45.8125 12.5 45.8125 
C 10.5 45.8125 10.5 45.8125 0.59375 45.8125 
L 0.59375 43.203125 
L 3.40625 43 
C 6.203125 42.796875 7.5 40.8125 10 33.03125 
L 20.203125 -0.5 
L 24.90625 -0.5 
L 34.703125 22.453125 
C 35.203125 23.65625 36.296875 26.046875 37.90625 29.4375 
L 39.90625 33.625 
L 53.5 -0.5 
L 58.09375 -0.5 
C 58.796875 1.59375 59.59375 3.890625 60.40625 6.078125 
C 62.40625 11.984375 64.59375 18.15625 65 18.765625 
L 71.796875 34.3125 
C 74.796875 41.015625 76 42.703125 78.203125 43 
L 80.796875 43.203125 
L 80.796875 45.8125 
C 72.59375 45.8125 72.59375 45.8125 71 45.8125 
C 69.40625 45.8125 69.40625 45.8125 61.203125 45.8125 
L 61.203125 43 
L 64.59375 43 
C 67.09375 43 68.5 41.796875 68.5 39.984375 
C 68.5 38.890625 68.296875 37.6875 67.796875 36.390625 
L 62.796875 22.390625 
C 62 20.1875 61.203125 18.171875 58 9.96875 
L 46.5 38.90625 
C 45.09375 42.296875 44.40625 44.296875 43.59375 47 
z
" id="URW_Palladio_L_Roman-119"/>
      <path d="M 29.703125 8.8125 
C 27.5 12.625 26.40625 14.9375 24.59375 19.84375 
L 18.203125 36.671875 
C 17.59375 38.375 17.203125 39.875 17.203125 40.90625 
C 17.203125 42.34375 18.296875 43.1875 20.59375 43.1875 
L 24.40625 43.1875 
L 24.40625 46 
C 14.703125 46 14.703125 46 12.796875 46 
C 10.90625 46 10.90625 46 1.203125 46 
L 1.203125 43.390625 
L 3 43.1875 
C 5.5 42.890625 6.703125 41.78125 8.203125 38.296875 
L 19.09375 12.109375 
C 21.90625 5.3125 22.90625 2.90625 24.703125 -2.09375 
L 22.40625 -8.1875 
C 19.203125 -16.59375 15.296875 -21.28125 11.5 -21.28125 
C 9.90625 -21.28125 8.09375 -20.484375 6.40625 -18.984375 
L 5.09375 -18.984375 
L 2.703125 -26.5 
C 4.59375 -27.5 6.203125 -28 8.09375 -28 
C 14.796875 -28 19.09375 -24.40625 22.90625 -15.703125 
L 43.203125 31.09375 
C 47.203125 40.1875 49.09375 42.890625 51.59375 43.1875 
L 54.40625 43.390625 
L 54.40625 46 
C 46.5 46 46.5 46 44.90625 46 
C 43.296875 46 43.296875 46 35.40625 46 
L 35.40625 43.390625 
L 38 43.1875 
C 40.796875 42.984375 42.203125 42.09375 42.203125 40.6875 
C 42.203125 39.984375 42 39.078125 41.59375 38.078125 
z
" id="URW_Palladio_L_Roman-121"/>
      <path d="M 51.90625 38 
L 54.40625 42.109375 
L 54 43.109375 
L 39.796875 43.109375 
C 36.09375 45.890625 32.5 47 27.59375 47 
C 23.203125 47 18.09375 45.625 14 43.25 
C 8.40625 40.109375 5.5 35.28125 5.5 29.28125 
C 5.5 22 10.09375 16.984375 17.5 16.1875 
L 9.59375 10 
C 8.59375 8.484375 8.09375 7.171875 8.09375 5.640625 
C 8.09375 2.8125 9.90625 1.1875 14.703125 -0.21875 
L 6 -4.9375 
C 4.59375 -5.734375 3.203125 -9.4375 3.203125 -12.546875 
C 3.203125 -21.6875 12.09375 -28 24.796875 -28 
C 39.90625 -28 51.796875 -18.46875 51.796875 -6.234375 
C 51.796875 0.984375 47 6 40 6 
L 24 6 
C 18.796875 6 16.40625 7.21875 16.40625 9.984375 
C 16.40625 11.3125 17.203125 12.421875 19.796875 14.671875 
C 20.40625 15.1875 20.59375 15.390625 21 15.796875 
C 22 15.6875 22.59375 15.59375 23.40625 15.59375 
C 27.703125 15.59375 33 17.46875 37.09375 20.3125 
C 41.59375 23.546875 43.796875 27.484375 43.796875 32.703125 
C 43.796875 34.65625 43.5 35.9375 42.703125 38 
z
M 24 43.59375 
C 30.796875 43.59375 35.40625 38.09375 35.40625 29.765625 
C 35.40625 23.421875 31.203125 19 25.09375 19 
C 18.40625 19 13.90625 24.09375 13.90625 31.640625 
C 13.90625 39.171875 17.59375 43.59375 24 43.59375 
M 28.703125 -1.015625 
C 40 -1.015625 43.90625 -3.3125 43.90625 -9.84375 
C 43.90625 -18.46875 36 -24.890625 25.5 -24.890625 
C 16.796875 -24.890625 10.796875 -19.78125 10.796875 -12.34375 
C 10.796875 -7.84375 13.40625 -3.71875 17.40625 -2.015625 
C 19 -1.21875 21.796875 -1.015625 28.703125 -1.015625 
" id="URW_Palladio_L_Roman-103"/>
      <path d="M 27.90625 47 
C 13.296875 47 3.203125 36.671875 3.203125 21.75 
C 3.203125 7.609375 12.09375 -2 25 -2 
C 40.40625 -2 51.40625 8.71875 51.40625 23.75 
C 51.40625 37.28125 41.59375 47 27.90625 47 
M 26.09375 43.6875 
C 35.296875 43.6875 42.09375 33.671875 42.09375 20.046875 
C 42.09375 8.515625 37 1.296875 28.90625 1.296875 
C 19.09375 1.296875 12.5 10.921875 12.5 25.15625 
C 12.5 37.171875 17.296875 43.6875 26.09375 43.6875 
" id="URW_Palladio_L_Roman-111"/>
     </defs>
     <g transform="translate(164.600763008 572.172738279)rotate(-90.0)scale(0.28 -0.28)">
      <use transform="scale(0.9962640099626402)" xlink:href="#URW_Palladio_L_Roman-80"/>
      <use transform="translate(60.173595233693966 0.0)scale(0.9962640099626402)" xlink:href="#URW_Palladio_L_Roman-114"/>
      <use transform="translate(126.32442488616907 0.0)scale(0.9962640099626402)" xlink:href="#URW_Palladio_L_Roman-8"/>
      <use transform="translate(99.52549156483501 0.0)scale(0.9962640099626402)" xlink:href="#URW_Palladio_L_Roman-97"/>
      <use transform="translate(149.33869206296703 0.0)scale(0.9962640099626402)" xlink:href="#URW_Palladio_L_Roman-100"/>
      <use transform="translate(235.11692298898663 0.0)scale(0.9962640099626402)" xlink:href="#URW_Palladio_L_Roman-112"/>
      <use transform="translate(294.9913167419054 0.0)scale(0.9962640099626402)" xlink:href="#URW_Palladio_L_Roman-114"/>
      <use transform="translate(332.5506340967466 0.0)scale(0.9962640099626402)" xlink:href="#URW_Palladio_L_Roman-111"/>
      <use transform="translate(386.9462142697307 0.0)scale(0.9962640099626402)" xlink:href="#URW_Palladio_L_Roman-103"/>
      <use transform="translate(442.33789123307133 0.0)scale(0.9962640099626402)" xlink:href="#URW_Palladio_L_Roman-111"/>
      <use transform="translate(496.73347140605546 0.0)scale(0.9962640099626402)" xlink:href="#URW_Palladio_L_Roman-119"/>
      <use transform="translate(579.8215645187968 0.0)scale(0.9962640099626402)" xlink:href="#URW_Palladio_L_Roman-121"/>
      <use transform="translate(660.1198417312033 0.0)scale(0.9962640099626402)" xlink:href="#URW_Palladio_L_Roman-91"/>
      <use transform="translate(693.2950714605387 0.0)scale(0.9962640099626402)" xlink:href="#URW_Palladio_L_Roman-109"/>
      <use transform="translate(781.2647457289073 0.0)scale(0.9962640099626402)" xlink:href="#URW_Palladio_L_Roman-65"/>
      <use transform="translate(858.773115830285 0.0)scale(0.9962640099626402)" xlink:href="#URW_Palladio_L_Roman-93"/>
     </g>
    </g>
   </g>
  </g>
 </g>
 <defs>
  <clipPath id="p8f39479aaa">
   <rect height="715.68" width="1298.0475" x="209.3625" y="89.46"/>
  </clipPath>
 </defs>
</svg>
